<svg version="1.2" xmlns="http://www.w3.org/2000/svg" viewBox="0 0 7 12" width="7" height="12">
	<title>grey-chevron</title>
	<style>
		.s0 { fill: #ffffff } 
	</style>
	<path class="s0" d="m0.3 0.3c-0.2 0.3-0.3 0.5-0.3 0.8 0 0.3 0.1 0.6 0.3 0.8l4 4.1-4 4.1c-0.2 0.2-0.3 0.5-0.3 0.8 0 0.3 0.1 0.5 0.3 0.8q0.2 0.1 0.4 0.2 0.2 0.1 0.4 0.1 0.2 0 0.5-0.1 0.2-0.1 0.3-0.2l4.8-4.9q0.1-0.1 0.2-0.3 0.1-0.2 0.1-0.5 0-0.2-0.1-0.4-0.1-0.2-0.2-0.4l-4.8-4.9q-0.1-0.1-0.3-0.2-0.3-0.1-0.5-0.1-0.2 0-0.4 0.1-0.2 0.1-0.4 0.2z"/>
</svg>