<svg version="1.2" xmlns="http://www.w3.org/2000/svg" viewBox="0 0 32 32" width="32" height="32">
	<title>down-arrow</title>
	<style>
		.s0 { fill: #acce7b } 
	</style>
	<g>
		<path class="s0" d="m26.9 11.6q0-0.1-0.1-0.2-0.1-0.2-0.2-0.2-0.2-0.1-0.3-0.2-0.2 0-0.3 0h-20q-0.1 0-0.3 0-0.1 0.1-0.3 0.2-0.1 0-0.2 0.2-0.1 0.1-0.1 0.2-0.1 0.2-0.1 0.3 0 0.1 0 0.3 0.1 0.1 0.1 0.3 0.1 0.1 0.2 0.2l10 10q0.1 0.2 0.3 0.2 0.2 0.1 0.4 0.1 0.2 0 0.4-0.1 0.2 0 0.3-0.2l10-10q0.1-0.1 0.2-0.2 0-0.2 0.1-0.3 0-0.2 0-0.3 0-0.1-0.1-0.3z"/>
	</g>
</svg>