<svg version="1.2" xmlns="http://www.w3.org/2000/svg" viewBox="0 0 2553 2588" width="2553" height="2588"><style>.a{fill:#82d179}.b{fill:#fff}</style><path class="a" d="m1209 392.5c-10.2 0.7-25.9 2-35 2.9-9.1 0.9-26 3-37.5 4.7-11.5 1.6-28.4 4.3-37.5 6-9.1 1.7-26 5.2-37.5 7.9-11.5 2.6-30.7 7.6-42.5 11-11.8 3.3-29.6 8.8-39.5 12.2-9.9 3.3-25.6 8.9-35 12.5-9.4 3.6-24.4 9.7-33.5 13.5-9.1 3.9-25.7 11.5-37 17-11.3 5.4-27.3 13.6-35.5 18-8.3 4.5-21.1 11.7-28.5 16.1-7.4 4.4-21.4 13.1-31 19.2-9.6 6.1-25.6 16.9-35.5 24-9.9 7.1-23 16.7-29 21.4-6 4.6-16.4 12.9-23 18.5-6.6 5.5-17.4 14.7-24 20.5-6.6 5.9-18.3 16.7-26 24.1-7.7 7.4-20.1 19.8-27.5 27.5-7.4 7.8-18.6 19.9-24.9 27-6.3 7.2-16.2 18.9-22.1 26-5.8 7.1-16.5 20.9-23.7 30.5-7.2 9.6-18.2 25.1-24.5 34.5-6.3 9.4-15.8 24-21 32.5-5.3 8.5-13.1 21.8-17.5 29.5-4.4 7.7-13.5 24.8-20.1 38-6.5 13.2-15.4 31.9-19.7 41.5-4.3 9.6-11.3 26.5-15.5 37.5-4.3 11-10.7 28.8-14.3 39.5-3.6 10.7-9.1 28.5-12.2 39.5-3.2 11-7.7 28.3-10 38.5-2.4 10.2-5.9 26.6-7.9 36.5-1.9 9.9-4.6 25.7-6 35-1.4 9.3-3.4 24.9-4.5 34.5-1.2 9.6-2.8 27.4-3.7 39.5-1.3 17.5-1.5 31.5-1.1 68.5 0.3 30.7 1 52.8 2.1 65 0.9 10.2 2.3 24.6 3.2 32 0.8 7.4 2.6 21.2 4 30.5 1.4 9.3 3.6 23.1 5 30.5 1.4 7.4 4.5 22.5 6.9 33.5 2.4 11 7 29.2 10 40.5 3.1 11.3 9.6 32.4 14.4 47 4.9 14.6 11.9 34.2 15.6 43.5 3.7 9.3 10.6 25.8 15.3 36.5 4.7 10.7 13.3 29 19.2 40.5 5.9 11.5 14.7 28.2 19.7 37 5 8.8 13.2 22.8 18.3 31 5.1 8.3 14.4 22.7 20.8 32 6.3 9.3 16.9 24.2 23.5 33 6.6 8.8 14.8 19.4 18.1 23.5 3.3 4.1 10.5 12.9 16.1 19.5 5.5 6.6 15.2 17.6 21.5 24.5 6.3 6.9 17.7 19 25.5 26.8 7.7 7.9 20.7 20.6 29 28.2 8.2 7.6 21.7 19.5 30 26.5 8.2 7 20.8 17.3 28 22.8 7.1 5.6 21.2 16 31.2 23.2 10 7.2 26.7 18.5 37 25.1 10.3 6.7 26.4 16.6 35.8 21.9 9.4 5.4 28.3 15.5 42 22.6 13.8 7 32.9 16.2 42.5 20.5 9.6 4.2 24.9 10.6 34 14.1 9.1 3.6 21.9 8.5 28.5 10.9 6.6 2.4 20.5 7 31 10.3 10.5 3.2 25.8 7.8 34 10.1 8.3 2.3 20.6 5.5 27.5 7.1 6.9 1.7 21.4 4.8 32.3 6.9 10.8 2.2 20.2 4 20.7 4 0.7 0 0.9-100.7 0.8-300.7l-0.3-300.8c-125.5-0.3-176.5-0.4-194.3-0.4l-32.2-0.1v-262h227c0-174.5 0.4-223.7 1-231.5 0.6-7.2 1.7-18.6 2.6-25.5 0.8-6.9 2.9-19.3 4.5-27.5 1.7-8.3 4.2-19.3 5.5-24.5 1.4-5.2 4.7-16 7.3-24 2.7-8 7.4-20.4 10.6-27.5 3.2-7.1 8.3-17.7 11.5-23.5 3.1-5.8 8.7-15.2 12.5-21 3.7-5.8 9-13.4 11.8-17 2.8-3.6 9.4-11.4 14.7-17.4 5.2-6.1 14-15 19.5-19.9 5.5-4.9 15.2-12.8 21.5-17.6 6.3-4.8 15.7-11.2 20.8-14.4 5-3.1 15.8-9 24-13.1 8.1-4 20.8-9.6 28.2-12.4 7.4-2.8 18.9-6.7 25.5-8.6 6.6-2 18.3-4.9 26-6.5 7.7-1.6 20.5-3.9 28.5-5 8-1.1 21.5-2.5 30-3.2 10.8-0.8 29-1 60-0.6 24.5 0.4 57.5 1.3 73.5 2.2 16 0.8 35.3 2 43 2.5 7.7 0.6 23.5 2 35 3 11.5 1.1 21.3 2 21.8 2 0.4 0 0.7 52.1 0.7 115.8 0.1 109.7 0 115.8-1.7 117.4-1.7 1.6-7 1.8-73.3 1.8-39.3 0-77.1 0.5-84 1-6.9 0.5-16.8 1.6-22 2.5-5.2 0.9-14 3-19.5 4.6-5.5 1.7-13.8 5.1-18.5 7.5-4.7 2.4-11.2 6.5-14.4 9.1-3.3 2.6-8.6 8-11.9 11.8-3.2 3.8-7.6 10.6-9.8 15-2.2 4.4-5.1 11.6-6.4 16-1.4 4.4-3.4 13.2-4.6 19.5-2.2 11.2-2.2 13.7-2.6 110.3l-0.3 98.7c232.1 0 259.1 0.3 259.5 1.2 0.3 0.7-0.1 6.7-1 13.3-0.9 6.6-1.8 13.1-2 14.5-0.2 1.4-0.6 4.7-0.9 7.5-0.4 2.7-2.4 19-4.7 36-2.2 17-4.4 34.8-4.9 39.5-0.6 4.7-1.2 9.6-1.5 11-0.2 1.4-0.7 4.5-1 7-0.3 2.5-2.5 20.2-5 39.5-2.5 19.2-6.1 47.8-8.1 63.5-2 15.7-3.7 28.6-3.8 28.7 0 0.1-51.1 0.3-113.4 0.5l-113.2 0.3c0 592.4-0.1 607.5-1.7 607.5-1 0-1.6 0.2-1.3 0.4 0.3 0.3 9.5-0.8 20.5-2.4 11-1.7 26.3-4.1 34-5.5 7.7-1.4 22.1-4.4 32-6.7 9.9-2.2 28.6-6.9 41.5-10.4 12.9-3.6 34.1-10 47-14.3 12.9-4.4 33.8-12.1 46.5-17.1 12.7-5.1 32.7-13.7 44.5-19.1 11.8-5.5 31-15 42.5-21.1 11.5-6.1 29.3-16.1 39.5-22.1 10.2-6.1 25-15.3 33-20.5 8-5.2 19.9-13.3 26.5-18 6.6-4.7 16.3-11.7 21.5-15.6 5.2-3.9 15.5-12 23-17.9 7.4-6 20-16.6 28-23.5 7.9-7 21.9-19.7 31-28.3 9.1-8.6 24.2-23.9 33.7-34 9.4-10.1 21.9-24 27.8-30.9 5.9-6.9 14.9-17.7 19.9-24 5.1-6.3 13.3-16.9 18.2-23.5 5-6.6 13.1-17.8 18.1-25 4.9-7.2 14.2-21.1 20.5-31 6.4-9.9 16-25.7 21.3-35 5.4-9.3 14.2-25.5 19.6-36 5.4-10.5 13.6-27.3 18.2-37.5 4.6-10.2 11.3-25.7 15-34.5 3.6-8.8 9.5-24.3 13.2-34.5 3.7-10.2 9.5-27.7 13-39 3.5-11.3 8.4-28.4 10.9-38 2.5-9.6 5.9-23.6 7.5-31 1.6-7.4 4.6-21.8 6.5-32 1.9-10.2 4.6-26.4 6-36 1.4-9.6 3.2-24 4-32 0.8-8 2-20.1 2.5-27 0.6-6.9 1.6-23.1 2.2-36 0.6-12.9 0.8-31.4 0.5-41-0.4-9.6-1.1-27-1.7-38.5-0.5-11.5-1.7-28.2-2.5-37-0.8-8.8-2.6-24.8-3.9-35.5-1.4-10.7-3.5-24.9-4.6-31.5-1.1-6.6-3.8-21-6-32-2.2-11-6.5-29.7-9.5-41.5-3-11.8-6.8-26-8.5-31.5-1.7-5.5-5.7-18.3-9-28.5-3.4-10.2-9.7-28-14.1-39.5-4.4-11.5-11.1-28-14.8-36.5-3.7-8.5-10.3-22.9-14.7-32-4.4-9.1-12.1-24.4-17.3-34-5.1-9.6-12.9-23.6-17.3-31-4.4-7.4-12.8-20.9-18.5-30-5.8-9.1-14.8-22.6-20-30-5.3-7.4-14.3-19.8-20.1-27.5-5.8-7.7-15.3-19.9-21.2-27-5.8-7.1-15.7-18.9-22-26-6.3-7.1-21.3-23.1-33.4-35.4-12.1-12.3-29.4-29-38.5-37.1-9.1-8.1-22.1-19.5-29-25.2-6.9-5.8-17.5-14.3-23.5-18.9-6-4.7-18.4-13.8-27.5-20.4-9.1-6.5-22.3-15.7-29.5-20.3-7.2-4.7-20.2-12.8-29-18.2-8.8-5.3-23.2-13.7-32-18.5-8.8-4.9-26.8-14.1-40-20.6-13.2-6.4-31-14.6-39.5-18.2-8.5-3.6-21.6-8.9-29-11.7-7.4-2.9-21.8-8.1-32-11.7-10.2-3.5-28.6-9.4-41-12.9-12.4-3.6-29.7-8.3-38.5-10.4-8.8-2.2-23.7-5.5-33-7.4-9.3-1.9-27.6-5.1-40.5-7-12.9-2-27.3-4-32-4.5-4.7-0.6-13.2-1.5-19-2.1-5.8-0.5-20.8-1.7-33.5-2.5-14.3-0.9-36.2-1.5-58-1.4-19.2 0.1-43.3 0.7-53.5 1.4z"/><path class="b" d="m1407.5 775.4c-7.7 0.8-19.2 2.1-25.5 3.1-6.3 0.9-17.8 3-25.5 4.6-7.7 1.6-19.4 4.5-26 6.5-6.6 1.9-18.1 5.8-25.5 8.6-7.4 2.8-20.1 8.4-28.3 12.4-8.1 4.1-18.9 10-23.9 13.1-5.1 3.2-14.5 9.6-20.8 14.4-6.3 4.8-16 12.7-21.5 17.6-5.5 4.9-14.3 13.8-19.5 19.9-5.3 6-11.9 13.8-14.7 17.4-2.8 3.6-8.1 11.2-11.8 17-3.8 5.8-9.4 15.2-12.5 21-3.2 5.8-8.3 16.4-11.5 23.5-3.2 7.2-7.9 19.5-10.6 27.5-2.6 8-5.9 18.8-7.3 24-1.3 5.2-3.8 16.3-5.5 24.5-1.6 8.3-3.7 20.6-4.5 27.5-0.9 6.9-2 18.3-2.6 25.5-0.6 7.8-1 57-1 122.3v109.2h-227v262c50 0.1 101 0.2 145.5 0.3l81 0.2 0.5 601.5c3.5 0.7 8.3 1.6 13 2.4 4.7 0.8 13.7 2.1 20 3 6.3 0.8 13.8 1.7 16.5 2.1 2.7 0.3 9 0.9 14 1.5 5 0.5 11.5 1.2 14.5 1.4 3 0.3 9.1 0.7 13.5 1.1 4.4 0.3 18.1 1 30.5 1.5 14.4 0.6 35.1 0.6 57.5 0 19.3-0.6 36.8-1.2 39-1.5 2.2-0.2 8-0.7 13-1 5-0.3 14.6-1.3 21.5-2.1 6.9-0.8 13.7-1.7 15.3-1.9l2.7-0.5v-607.5c175.5-0.5 226.6-0.7 226.6-0.8 0.1-0.1 1.8-13 3.8-28.7 2-15.7 5.6-44.2 8.1-63.5 2.5-19.2 4.7-37 5-39.5 0.3-2.5 0.8-5.6 1-7 0.3-1.4 0.9-6.3 1.5-11 0.5-4.7 2.7-22.5 4.9-39.5 2.3-17 4.3-33.2 4.7-36 0.3-2.7 0.7-6.1 0.9-7.5 0.2-1.4 1.1-7.9 2-14.5 0.9-6.6 1.3-12.6 1-13.2-0.4-1-27.4-1.3-130-1.3h-129.5c0.7-195.3 0.7-197.8 2.9-209 1.2-6.3 3.2-15.1 4.6-19.5 1.3-4.4 4.2-11.6 6.4-16 2.2-4.4 6.6-11.2 9.8-15 3.3-3.8 8.6-9.2 11.9-11.8 3.2-2.6 9.7-6.7 14.4-9.1 4.7-2.4 13-5.8 18.5-7.5 5.5-1.6 14.3-3.7 19.5-4.6 5.2-0.9 15.1-2 22-2.5 6.9-0.5 44.7-0.9 84-0.9 67.3 0 71.6-0.1 73.2-1.8 1.6-1.7 1.8-9.3 1.8-117.5 0-63.7-0.3-115.8-0.7-115.8-0.5 0-10.3-0.9-21.8-2-11.5-1-27.3-2.4-35-3-7.7-0.5-27-1.7-43-2.5-16-0.9-51-1.8-78-2-36.4-0.3-52.6-0.1-63 0.9z"/></svg>