<svg version="1.2" xmlns="http://www.w3.org/2000/svg" viewBox="0 0 256 256" width="64" height="64">
	<path fill="CurrentColor" d="m242.4 123.7q-0.6-1.1-1.4-1.9-0.7-0.9-1.6-1.6-0.9-0.7-2-1.2-1-0.5-2.1-0.8-3.2-0.8-6.5-1.3-3.3-0.6-6.6-0.8-3.3-0.2-6.6-0.1-3.3 0.1-6.6 0.5c5.5-21.4 2.4-38.3-0.8-48-0.4-1.4-1.1-2.7-2.1-3.9-0.9-1.2-2-2.2-3.3-2.9-1.3-0.8-2.8-1.3-4.3-1.5-1.4-0.2-2.9-0.2-4.4 0.1q-4.2 1-8.3 2.3-4 1.4-7.9 3.2-4 1.8-7.7 4-3.7 2.1-7.1 4.7-2.3-5.3-5.2-10.3-2.9-4.9-6.5-9.5-3.5-4.5-7.6-8.6-4.1-4.1-8.6-7.6-1.6-1.2-3.4-1.8-1.9-0.6-3.8-0.6-2 0-3.8 0.6-1.9 0.6-3.5 1.8-4.5 3.5-8.6 7.6-4.1 4.1-7.6 8.6-3.5 4.6-6.4 9.5-3 5-5.2 10.3-3.5-2.6-7.2-4.7-3.7-2.2-7.6-4-3.9-1.8-8-3.2-4.1-1.3-8.2-2.3c-1.5-0.3-3-0.3-4.5-0.1-1.5 0.2-2.9 0.7-4.2 1.5-1.3 0.7-2.5 1.7-3.4 2.9-0.9 1.2-1.7 2.5-2.1 3.9-3.1 9.7-6.2 26.6-0.8 48q-3.2-0.4-6.6-0.5-3.3-0.1-6.6 0.1-3.3 0.2-6.5 0.8-3.3 0.5-6.5 1.3-1.1 0.3-2.2 0.8-1 0.5-1.9 1.2-0.9 0.7-1.7 1.6-0.7 0.8-1.3 1.9-0.6 1-1 2.1-0.4 1.2-0.5 2.3-0.2 1.2-0.1 2.4 0.1 1.2 0.4 2.4c3.2 12 13.2 34.8 43.5 52.9 30.3 18.1 57.5 18.2 72.1 18.2 14.6 0 41.6 0 72.1-18.2 30.4-18.2 40.3-40.9 43.5-52.9q0.3-1.2 0.4-2.4 0.1-1.2-0.1-2.4-0.1-1.2-0.5-2.3-0.4-1.1-1-2.1zm-46.6-55.6q0.8-0.1 1.5 0 0.8 0.1 1.5 0.5 0.7 0.4 1.2 1 0.4 0.6 0.7 1.4c4 12.5 8 38.3-10.8 71-10.4 18.2-25.1 32.2-38.1 41.4 10.2-13.4 20.2-34.2 20.2-64.2q0-4.7-0.3-9.4-0.4-4.7-1.1-9.4-0.7-4.6-1.9-9.2-1.1-4.5-2.6-9 3.3-2.6 6.8-4.7 3.5-2.2 7.3-4 3.7-1.8 7.6-3.1 4-1.4 8-2.3zm-140.5 2.9q0.3-0.7 0.8-1.4 0.4-0.6 1.1-1 0.7-0.4 1.5-0.5 0.7-0.1 1.5 0.1 4 0.9 8 2.2 3.9 1.4 7.6 3.1 3.8 1.8 7.3 4 3.5 2.1 6.8 4.7-1.5 4.5-2.6 9-1.2 4.6-1.9 9.2-0.7 4.7-1.1 9.4-0.3 4.7-0.3 9.4c0 30 10 50.8 20.2 64.2-13-9.2-27.6-23.2-38.1-41.4-18.8-32.7-14.8-58.5-10.8-71zm4.7 108c-27.9-16.7-37-37.3-39.9-48.2q-0.1-0.3-0.1-0.7 0-0.5 0-0.9 0.1-0.4 0.2-0.7 0.2-0.4 0.4-0.8 0.1-0.3 0.4-0.6 0.2-0.2 0.5-0.5 0.3-0.2 0.6-0.4 0.3-0.1 0.7-0.2 3.2-0.8 6.6-1.3 3.3-0.5 6.7-0.6 3.4-0.1 6.7 0.1 3.4 0.2 6.7 0.8 1 2.7 2 5.4 1.1 2.7 2.3 5.3 1.2 2.6 2.6 5.2 1.3 2.6 2.8 5.1c13.2 23.1 32.6 39.7 48.2 49.1q-6.2-0.7-12.4-2.1-6.2-1.4-12.1-3.4-6-2-11.7-4.7-5.8-2.7-11.1-6zm68 16.4q-2.5-1.7-4.8-3.6-2.3-1.9-4.4-4-2.2-2-4.2-4.2-1.9-2.3-3.7-4.6c-12.6-16.4-19-36.5-19-59.8 0-44.2 23.5-66.7 33.6-74.3q0.5-0.4 1.1-0.6 0.6-0.2 1.3-0.2 0.7 0 1.3 0.2 0.6 0.2 1.1 0.6c10.1 7.6 33.6 30.1 33.6 74.3 0 23.3-6.4 43.4-18.9 59.7q-1.8 2.4-3.8 4.6-2 2.2-4.1 4.3-2.2 2-4.5 3.9-2.3 1.9-4.7 3.6zm107.9-64.5c-3 10.8-12 31.5-39.9 48.2q-5.4 3.2-11.2 5.9-5.7 2.7-11.7 4.7-5.9 2-12.1 3.4-6.2 1.4-12.4 2.1c15.6-9.4 35-26 48.2-49.1q1.5-2.5 2.8-5.1 1.4-2.5 2.6-5.2 1.2-2.6 2.3-5.3 1-2.7 2-5.4 3.3-0.6 6.7-0.8 3.3-0.2 6.7-0.1 3.4 0.1 6.7 0.6 3.4 0.5 6.6 1.3 0.4 0.1 0.7 0.3 0.3 0.1 0.6 0.3 0.3 0.3 0.5 0.5 0.3 0.3 0.4 0.6 0.2 0.4 0.3 0.7 0.2 0.4 0.2 0.8 0.1 0.4 0 0.8 0 0.4-0.1 0.7z"/>
</svg>