<svg version="1.2" xmlns="http://www.w3.org/2000/svg" viewBox="0 0 1800 1800" width="1800" height="1800"><style>.a{fill:#90b376}.b{opacity:.3;fill:#94b777}</style><path fill-rule="evenodd" class="a" d="m903 200.4c28.3 0.3 34.4 0.6 39.5 2 3.3 1 9.6 3.6 14 5.8 4.4 2.2 10.7 5.9 14 8.3 3.3 2.3 8 6.4 10.5 9.1 2.5 2.7 6 6.9 7.6 9.4 1.7 2.5 7.8 12.8 13.5 22.9 6.8 12.1 12.3 20.5 15.9 24.4 3 3.3 8.2 8 11.5 10.5 3.3 2.5 10 6.4 15 8.7 5 2.4 11.9 5.1 15.5 6 5 1.4 12.7 1.9 61.5 3l6.8 3.2c3.7 1.8 9.1 5.5 11.9 8.2 2.9 2.7 6.5 7.1 8 9.7 1.5 2.7 3.4 7.6 4.2 10.9 1.3 4.9 1.6 12.7 1.6 44.3 0 33.9-0.2 38.8-1.8 44-1 3.1-3 7.7-4.4 10.2-1.4 2.5-4.9 6.6-7.7 9.3-2.8 2.6-8.1 6.2-18.6 11.2l-219.8 0.3c-217.4 0.2-219.8 0.2-225.7-1.8-3.3-1.1-7.7-3.1-9.7-4.4-2.1-1.3-5.7-4.3-8.1-6.7-2.4-2.4-6-7.8-11.7-19.3v-87.1l3.3-7c1.8-3.9 5.4-9.2 8-11.9 2.6-2.6 6.4-5.9 8.4-7.2 2.1-1.3 6.5-3.3 9.8-4.4 5.2-1.7 8.7-2 27.3-2 11.6 0 24.3-0.5 28.2-1 3.9-0.6 9.9-2 13.5-3.2 3.6-1.1 9.4-3.5 13-5.3 3.6-1.8 9.2-5.3 12.5-7.8 3.3-2.4 8.5-7.1 11.5-10.4 3.6-3.9 9-12.2 15.9-24.4 5.7-10.1 12-20.8 14-23.8 2-3 6.6-8.1 10.2-11.5 3.6-3.4 10.1-8.2 14.5-10.9 4.3-2.6 11-5.8 14.9-7.2 3.9-1.3 9.5-2.9 12.5-3.4 3-0.5 20.6-0.8 39-0.7zm-22.6 72.2c-2.2 1.7-5.4 5.3-7.2 8-1.8 2.7-3.8 6.7-4.4 8.9-0.5 2.2-0.8 7.4-0.6 11.5 0.3 4.4 1.2 8.9 2.3 11 0.9 1.9 3.3 5.4 5.1 7.7q3.4 4.3 10.1 7.5c5.8 2.8 7.8 3.3 14.3 3.3 6.5 0 8.5-0.5 14.3-3.3q6.7-3.2 10.1-7.5c1.8-2.3 4.2-5.8 5.2-7.7 1.5-2.8 1.9-5.6 1.9-13.5 0-8.4-0.4-10.7-2.2-14.3-1.3-2.3-4-6-6-8.3-2.1-2.2-6.3-5.2-9.3-6.7-3.9-1.8-7.5-2.7-12.5-2.9-4.9-0.3-8.6 0.2-12.1 1.4-2.8 1-6.9 3.2-9 4.9zm-278.4 102.4l0.3 29.7c0.3 27.3 0.5 30.4 2.6 37.3 1.2 4.1 4.2 11.6 6.6 16.5 2.5 5 7.2 12.3 10.7 16.4 3.5 4.1 9.4 9.9 13.3 12.8 3.9 3 10.6 7.2 15 9.4 4.4 2.1 11.1 4.9 22 8.4l223.5 0.3c188 0.2 224.7 0 231-1.2 4.1-0.7 11.1-2.8 15.5-4.5 4.4-1.8 11.5-5.5 15.9-8.4 4.3-2.9 11.3-8.8 15.5-13.2 4.2-4.4 9.6-11.1 11.9-15 2.2-3.9 5.2-9.9 6.6-13.5 1.3-3.6 3.1-10 4-14.3 1.2-5.9 1.6-13.8 1.6-60.7l65.7 0.3c63.9 0.3 66 0.3 73.3 2.4 4.1 1.2 10.7 3.6 14.5 5.3 3.8 1.8 10.3 5.5 14.4 8.3 4.1 2.9 10.2 8.2 13.5 11.9 3.4 3.6 8.2 10.2 10.8 14.5 2.6 4.3 6 11.9 7.7 16.8 1.6 4.9 3.4 12.5 4 16.7 0.8 5.5 1.1 167.1 1.1 538.5 0 514.3-0.1 531.1-1.9 539.8-1 5-3.1 11.9-4.5 15.5-1.5 3.6-4.8 9.9-7.4 14-2.5 4.1-7.8 10.7-11.7 14.6-3.8 3.9-10.2 9.2-14 11.6-3.8 2.5-9.7 5.7-13 7.2-3.3 1.5-9.4 3.7-21 7.1l-424 0.3c-301.5 0.2-426.5 0-432.5-0.8-4.7-0.6-12.1-2.3-16.5-3.8-4.4-1.5-11.6-4.8-15.9-7.2-4.3-2.5-11.3-7.7-15.4-11.5-4.1-3.8-9.4-9.7-11.8-13-2.3-3.3-5.8-9.4-7.8-13.5-2-4.1-4.6-11.3-8.1-24.5v-539c0-519.4 0.1-539.2 1.8-545.5 1-3.6 3.7-10.3 5.9-15 2.1-4.7 5.9-11.2 8.2-14.5 2.4-3.3 7.2-8.7 10.7-12 3.6-3.3 8.9-7.6 11.9-9.7 3-2 8.4-4.9 12-6.6 3.6-1.6 9.2-3.7 12.5-4.6 3.3-1 8.5-2.1 11.5-2.6 3-0.4 33.5-0.8 130-1zm112.5 221.8c-1.1 0.6-18.6 17.8-39 38.1-20.4 20.4-37.5 37.1-38 37.1-0.5 0-8.2-7.2-17-15.9-13.7-13.6-16.7-16.1-20.5-17.1-2.5-0.7-6.7-0.9-9.5-0.6-2.8 0.3-6.7 1.7-8.8 3.1-2 1.4-4.9 4.6-6.4 7.3-2.2 3.7-2.8 5.9-2.8 10.7 0.1 3.6 0.7 7.2 1.7 9 0.9 1.7 12.7 14 26.2 27.5 13.6 13.5 26.3 25.4 28.4 26.4 2.2 1.1 5.8 1.9 8.7 1.9 3.2 0 6.6-0.8 9.5-2.3 3.1-1.5 18.3-16 50.2-47.8 31.7-31.7 46.2-46.9 47.3-49.4 0.8-2.1 1.5-6.3 1.5-9.3 0-3.1-0.7-6.9-1.6-8.7-0.9-1.8-2.8-4.6-4.3-6.1-1.4-1.6-3.7-3.5-5.1-4.2-1.4-0.7-4.8-1.6-7.5-1.9-2.8-0.3-6.4-0.1-8 0.3-1.6 0.4-3.9 1.3-5 1.9zm103.9 48.3c-1.6 1.9-3.6 5.2-4.3 7.4-0.8 2.2-1.2 6.3-1 9.1 0.3 3.7 1.3 6.4 3.4 9.5 1.7 2.4 5.1 5.5 7.5 6.9l4.5 2.5c313.2 0.4 381.3 0.1 383.8-0.5 2-0.6 5.6-2.7 7.8-4.7 2.3-2.1 4.8-5.1 5.7-6.8 0.8-1.7 1.6-5.7 1.6-9.1 0.1-5.1-0.4-6.9-2.9-11-2.3-3.7-4.3-5.6-8.5-7.7l-5.5-2.7c-372.4 0-381.2 0.1-385 1.9-2.2 1-5.4 3.3-7.1 5.2zm-103.9 126.7c-1.1 0.6-18.7 17.8-39 38.1-20.4 20.4-37.5 37.1-38 37.1-0.5 0-8.2-7.2-17-15.9-13.7-13.6-16.7-16.1-20.5-17.1-2.5-0.7-6.7-0.9-9.5-0.6-2.8 0.3-6.7 1.7-8.8 3.1-2 1.4-4.9 4.6-6.4 7.3-2.2 3.7-2.8 5.9-2.8 10.7 0.1 3.6 0.7 7.2 1.7 9 0.9 1.7 12.7 14 26.2 27.5 13.6 13.5 26.3 25.4 28.4 26.4 2.2 1.1 5.8 1.9 8.7 1.9 3.2 0 6.6-0.8 9.5-2.3 3.1-1.5 18.3-16 50.2-47.8 31.7-31.7 46.2-46.9 47.3-49.4 0.8-2.1 1.5-6.3 1.5-9.3 0-3.1-0.7-6.9-1.6-8.7-0.9-1.8-2.8-4.6-4.3-6.1-1.4-1.6-3.7-3.5-5.1-4.2-1.4-0.7-4.8-1.6-7.5-1.9-2.8-0.3-6.4-0.1-8 0.3-1.7 0.4-3.9 1.3-5 1.9zm103.9 48.3c-1.6 1.9-3.6 5.2-4.3 7.4-0.8 2.2-1.2 6.3-1 9.1 0.3 3.7 1.3 6.4 3.4 9.5 1.7 2.4 5.1 5.5 7.5 6.9l4.5 2.5c313.2 0.4 381.3 0.1 383.7-0.5 2.1-0.6 5.7-2.7 7.9-4.7 2.3-2.1 4.8-5.1 5.7-6.8 0.8-1.7 1.6-5.7 1.6-9.1 0.1-5.1-0.4-6.9-2.9-11-2.3-3.7-4.3-5.6-8.5-7.7l-5.5-2.7c-372.4 0-381.2 0.1-385 1.9-2.2 1-5.4 3.3-7.1 5.2zm-103.9 126.7c-1.1 0.6-18.6 17.8-39 38.1-20.4 20.4-37.5 37.1-38 37.1-0.5 0-8.2-7.2-17-15.9-13.7-13.6-16.7-16.1-20.5-17.1-2.5-0.7-6.7-0.9-9.5-0.6-2.8 0.3-6.7 1.7-8.8 3.1-2 1.4-4.9 4.6-6.4 7.3-2.2 3.7-2.8 5.9-2.8 10.7 0.1 3.6 0.7 7.2 1.7 9 0.9 1.6 12.7 14 26.2 27.5 13.6 13.5 26.3 25.4 28.4 26.4 2.2 1.1 5.8 1.9 8.7 1.9 3.2 0 6.6-0.8 9.5-2.3 3.1-1.5 18.3-16 50.2-47.8 31.7-31.7 46.2-46.9 47.3-49.4 0.8-2.1 1.5-6.3 1.5-9.3 0-3.1-0.7-6.9-1.6-8.7-0.9-1.8-2.8-4.6-4.3-6.1-1.4-1.6-3.7-3.5-5.1-4.2-1.4-0.7-4.8-1.6-7.5-1.9-2.8-0.3-6.4-0.1-8 0.3-1.6 0.4-3.9 1.3-5 1.9zm103.9 48.3c-1.6 1.9-3.6 5.2-4.3 7.4-0.8 2.2-1.2 6.3-1 9.1 0.3 3.7 1.3 6.4 3.4 9.5 1.7 2.4 5.1 5.5 7.5 6.9l4.5 2.5c313.2 0.4 381.3 0.1 383.8-0.5 2-0.6 5.6-2.7 7.8-4.7 2.3-2.1 4.8-5.2 5.7-6.8 0.8-1.7 1.6-5.7 1.6-9.1 0.1-5.1-0.4-6.9-2.9-11-2.3-3.7-4.3-5.6-8.5-7.7l-5.5-2.7c-372.4 0-381.2 0.1-385 1.9-2.2 1-5.4 3.3-7.1 5.2z"/><path class="b" d="m694 309.7c5.8 0.2 15.7 0.2 22 0 6.3-0.1 1.6-0.3-10.5-0.3-12.1 0-17.3 0.2-11.5 0.3zm388.5 0c6 0.2 16.2 0.2 22.5 0 6.3-0.1 1.4-0.3-11-0.3-12.4 0-17.5 0.2-11.5 0.3zm-437 75.3c0 20.6 0.1 29 0.2 18.5 0.2-10.4 0.2-27.3 0-37.5-0.1-10.2-0.2-1.6-0.2 19zm509 1.5c0 19.8 0.1 28.1 0.2 18.5 0.2-9.6 0.2-25.8 0-36-0.1-10.2-0.2-2.3-0.2 17.5zm-758 599c0 292.1 0.1 411.3 0.2 265 0.2-146.3 0.2-385.3 0-531-0.1-145.8-0.2-26.1-0.2 266zm395-522.8c59.4 0.2 156.8 0.2 216.5 0 59.7-0.1 11.1-0.2-108-0.2-119.1 0-167.9 0.1-108.5 0.2zm612 525.8c0 289.8 0.1 408.2 0.2 263 0.2-145.2 0.2-382.3 0-527-0.1-144.7-0.2-25.9-0.2 264zm-728.5-353.8l-37.5 37.8c58.5-58.1 75.5-75.1 75.5-75.2 0-0.2-0.1-0.3-0.3-0.3-0.1 0-17.1 17-37.7 37.8zm250 2.9c52 0.2 137.2 0.2 189.5 0 52.2-0.1 9.7-0.2-94.5-0.2-104.2 0-147 0.1-95 0.2zm-304 18.8c8.5 8.5 15.7 15.5 16 15.5 0.3 0-6.4-7-14.7-15.5-8.4-8.5-15.6-15.5-16-15.5-0.5 0 6.2 7 14.7 15.5zm-19.5 41.5c12.6 12.7 23.2 23 23.5 23 0.3 0-9.7-10.3-22.2-23-12.5-12.6-23.1-23-23.5-23-0.5 0 9.5 10.3 22.2 23zm73.5 111.8l-37.5 37.7c58.5-58.1 75.5-75.1 75.5-75.2 0-0.2-0.1-0.3-0.3-0.3-0.1 0-17.1 17-37.7 37.8zm250 2.9c52 0.2 137.2 0.2 189.5 0 52.2-0.1 9.7-0.2-94.5-0.2-104.2 0-147 0.1-95 0.2zm-304 18.8c8.5 8.5 15.7 15.5 16 15.5 0.3 0-6.4-7-14.7-15.5-8.4-8.5-15.6-15.5-16-15.5-0.5 0 6.2 7 14.7 15.5zm-19.5 41.5c12.6 12.7 23.2 23 23.5 23 0.3 0-9.7-10.3-22.2-23-12.5-12.6-23.1-23-23.5-23-0.5 0 9.5 10.3 22.2 23zm73.5 111.8l-37.5 37.7c58.5-58.1 75.5-75.1 75.5-75.2 0-0.2-0.1-0.3-0.3-0.3-0.1 0-17.1 17-37.7 37.8zm250 2.9c52 0.2 137.2 0.2 189.5 0 52.2-0.1 9.7-0.2-94.5-0.2-104.2 0-147 0.1-95 0.2zm-304 18.8c8.5 8.5 15.7 15.5 16 15.5 0.3 0-6.4-7-14.7-15.5-8.4-8.5-15.6-15.5-16-15.5-0.5 0 6.2 7 14.7 15.5zm-19.5 41.5c12.6 12.7 23.2 23 23.5 23 0.3 0-9.7-10.3-22.2-23-12.5-12.6-23.1-23-23.5-23-0.5 0 9.5 10.3 22.2 23z"/></svg>