<svg version="1.2" xmlns="http://www.w3.org/2000/svg" viewBox="0 0 684 693" width="684" height="693"><style>.a{fill:#90b376}.b{fill:#fcfcfc}</style><path class="a" d="m319 88.6c-2.5 0.2-9.7 1.1-16 2-6.3 0.8-16.4 2.6-22.5 4-6.1 1.4-18 4.8-26.5 7.6-9.5 3.2-21.5 8.2-31 12.9-8.5 4.3-20.4 11-26.5 15-6.1 3.9-13.9 9.4-17.5 12.2-3.6 2.8-10.7 8.9-15.9 13.7-5.2 4.7-13.3 12.8-17.9 18-4.7 5.2-11.7 13.8-15.6 19-3.9 5.2-10.2 14.7-14 21-3.8 6.3-9 15.8-11.4 21-2.5 5.2-6.4 14.4-8.7 20.5-2.3 6.1-5.4 15.1-6.8 20-1.4 4.9-3.7 14.6-5.1 21.5-1.3 6.9-3 17.7-3.7 24-0.8 7.4-1 19.1-0.6 33 0.4 14.9 1.2 25.3 2.7 34 1.1 6.9 3.4 17.7 5.1 24 1.6 6.3 4.6 16 6.5 21.5 2 5.5 6.2 15.6 9.3 22.5 3.1 6.9 8.5 17.2 12 23 3.6 5.8 8.5 13.4 11 17 2.5 3.6 7.2 9.9 10.5 14 3.3 4.1 11.8 13.4 19 20.5 7.2 7.2 18.3 16.9 24.6 21.7 6.3 4.7 15.6 11.1 20.5 14.3 4.9 3.1 15.7 9 24 13 8.2 4.1 20.4 9.3 27 11.5 6.6 2.3 17.2 5.4 23.5 7 6.3 1.6 17.4 3.9 24.5 5 7.1 1.1 20.2 2.3 29 2.6 9 0.4 21.4 0.2 28.5-0.5 6.9-0.6 17.7-2 24-3.1 6.3-1.1 17.1-3.5 24-5.4 6.9-1.9 17-5.1 22.5-7 5.5-2 16.3-6.7 24-10.5 7.7-3.8 18.1-9.5 23-12.6 4.9-3.2 14.2-9.6 20.5-14.4 6.3-4.7 16.7-13.8 23-20.1 6.4-6.3 14.8-15.3 18.7-20 3.9-4.7 10.4-13.4 14.5-19.5 4.2-6.1 10.1-15.7 13.2-21.5 3.2-5.8 7.4-14.3 9.6-19 2.1-4.7 5.4-13.2 7.4-19 2.1-5.8 5-15.4 6.6-21.5 1.6-6.1 3.9-16.6 5-23.5 1.4-8.1 2.3-19.4 2.7-32 0.4-12 0.1-24.5-0.6-32.5-0.7-7.1-2.5-19.6-4.1-27.7-1.7-8.2-5.2-21.4-7.9-29.5-2.6-8.2-7.2-20-10-26.3-2.9-6.3-7.3-15.1-9.8-19.5-2.5-4.4-7.3-12.1-10.6-17-3.3-4.9-9-12.8-12.6-17.5-3.6-4.7-11.8-13.7-18.1-20.1-6.3-6.3-15.3-14.7-20-18.6-4.7-3.9-14.4-11-21.5-15.7-7.1-4.8-20.2-12.3-29-16.6-8.8-4.3-20.7-9.5-26.5-11.5-5.8-2-16.4-5.2-23.5-7-7.1-1.9-18.9-4.4-26-5.5-8.7-1.4-19.5-2.2-32.5-2.4-10.7-0.2-21.5-0.2-24 0z"/><path class="b" d="m318 206.5c-4.7 0.8-12.6 2.6-17.5 4-4.9 1.4-12.8 4.3-17.5 6.3-4.7 2.1-12.3 6-16.9 8.7-4.6 2.8-12.4 8.4-17.5 12.6-5 4.2-11.4 10.2-14.2 13.5-2.8 3.2-7.7 9.5-10.9 13.9-3.2 4.4-8.4 13.4-11.6 20-3.2 6.6-6.9 16.1-8.2 21-1.4 4.9-3 11.5-3.7 14.5-0.7 3-1.5 12-1.7 20-0.5 10.9-0.1 17.6 1.2 27 1 7.3 3.2 16.9 5.2 23 2 5.8 6 15.2 8.9 21 3 5.8 8.3 14.3 11.8 19 3.5 4.7 9.9 12.1 14.2 16.4 4.4 4.4 11.5 10.6 15.9 13.9 4.4 3.2 11.8 8 16.5 10.5 4.7 2.5 12.6 6.1 17.5 7.9 4.9 1.9 12.8 4.3 17.5 5.4 4.7 1.1 12.3 2.5 17 3.1 4.7 0.6 15 0.8 23 0.5 10.2-0.4 17.6-1.3 25-3 5.8-1.4 13.4-3.6 17-4.9 3.6-1.4 11-4.8 16.5-7.6 5.5-2.8 13.6-7.7 18-11 4.4-3.2 11.9-9.6 16.6-14.2 4.8-4.7 10.7-11.6 13.2-15.5 2.4-3.9 6.3-10.6 8.5-15 2.2-4.4 5.3-11.8 7-16.5 1.6-4.7 4-13.2 5.3-19 2-9.1 2.3-13.1 2.3-30.5 0-11-0.5-21.8-1-24l-1-4-142.4-0.5v54c63.6 0 82 0.2 82 0.5 0 0.3-1.6 3.5-3.5 7.3-1.9 3.7-5.5 9.3-8 12.5-2.5 3.1-7.8 8.4-11.7 11.7-4 3.3-10.9 7.8-15.3 10-4.4 2.2-11.8 4.9-16.5 6-5.8 1.5-11.7 2.1-18.5 2.1-5.7 0-13.2-0.7-17.5-1.7-4.1-0.9-10.4-2.9-14-4.3-3.6-1.5-9.6-4.7-13.5-7.3-3.9-2.5-10-7.8-13.7-11.7-3.8-3.9-8.8-10.6-11.3-14.8-2.5-4.3-5.7-11.4-7.1-15.8-2-6.1-2.7-11-3.1-20.5-0.5-10.6-0.3-14 1.5-22 1.2-5.2 3.8-12.9 5.8-17 2-4.1 5.5-10 7.9-13 2.3-3 6.7-7.8 9.6-10.6 3-2.8 8.1-6.8 11.4-8.9 3.3-2.1 8.4-4.9 11.3-6.2 2.8-1.3 8.8-3.2 13.2-4.3 5.6-1.4 11.3-2 19-2 7.9 0 13.3 0.6 19.3 2.1 4.5 1.1 10.9 3.3 14.2 4.9 3.3 1.5 8.5 4.4 11.5 6.4l5.5 3.6c7-6.6 17-15.9 26.8-25 9.8-9.1 17.8-16.8 17.7-17.3 0-0.4-2.1-2.4-4.7-4.6-2.7-2.1-8.9-6.5-13.8-9.7-4.9-3.3-13.3-7.8-18.5-10.1-5.2-2.3-13.6-5.4-18.5-6.8-4.9-1.4-13.3-3.3-18.5-4-5.2-0.8-15.1-1.4-22-1.4-6.9 0.1-16.3 0.7-21 1.4z"/></svg>