<svg version="1.2" xmlns="http://www.w3.org/2000/svg" viewBox="0 0 824 208" width="824" height="208">
	<title>google-stars-svg</title>
	<style>
		.s0 { fill: #518ef8 } 
		.s1 { fill: #eb8311 } 
		.s2 { fill: #fbbb00 } 
		.s3 { fill: #28b446 } 
		.s4 { fill: #f14336 } 
	</style>
	<path class="s0" d="m206 84.5c1.2 6.3 1.8 12.8 1.8 19.4 0 7.4-0.8 14.7-2.3 21.7-5.1 23.8-18.3 44.6-36.6 59.3l-29.6-1.5-4.2-26.2c12.1-7.1 21.6-18.3 26.6-31.6h-55.6v-41.1h56.4z"/>
	<g>
		<g>
			<g>
				<g>
					<path class="s1" d="m352.7 91.1c-0.9-2.7-3.2-4.6-5.9-5l-28.2-4.1-12.6-25.4c-2.5-5-10.7-5-13.2 0l-12.5 25.4-28 4.1c-2.8 0.4-5.1 2.3-5.9 5-0.9 2.7-0.1 5.6 1.9 7.5l20.3 19.8-4.8 28c-0.5 2.8 0.7 5.6 2.9 7.2 2.3 1.6 5.3 1.9 7.8 0.6l25.1-13.2 25.1 13.2c1.1 0.6 2.3 0.8 3.4 0.8 1.5 0 3-0.5 4.3-1.4 2.3-1.7 3.4-4.4 2.9-7.2l-4.8-28 20.3-19.8c2-2 2.7-4.9 1.9-7.5z"/>
				</g>
			</g>
			<g>
				<g>
					<path class="s1" d="m470.4 91.1c-0.9-2.7-3.2-4.6-5.9-5l-28.2-4.1-12.6-25.4c-2.5-5-10.7-5-13.2 0l-12.5 25.4-28 4c-2.8 0.4-5.1 2.3-5.9 5-0.9 2.7-0.1 5.6 1.9 7.5l20.3 19.8-4.8 28c-0.5 2.8 0.7 5.6 2.9 7.2 2.3 1.6 5.3 1.9 7.8 0.6l25.1-13.2 25.1 13.2c1.1 0.6 2.3 0.8 3.4 0.8 1.5 0 3-0.5 4.3-1.4 2.3-1.7 3.4-4.4 2.9-7.2l-4.8-28 20.3-19.8c2-1.9 2.8-4.8 1.9-7.4z"/>
				</g>
			</g>
			<g>
				<g>
					<path class="s1" d="m588.1 91.1c-0.9-2.7-3.2-4.6-5.9-5l-28.1-4.1-12.6-25.4c-2.5-5-10.7-5-13.2 0l-12.5 25.4-28 4.1c-2.8 0.4-5.1 2.3-5.9 5-0.9 2.7-0.1 5.6 1.9 7.5l20.3 19.8-4.8 28c-0.5 2.8 0.7 5.6 2.9 7.2 2.3 1.6 5.3 1.9 7.8 0.6l25.1-13.2 25.1 13.2c1.1 0.6 2.3 0.8 3.4 0.8 1.5 0 3-0.5 4.3-1.4 2.3-1.7 3.4-4.4 2.9-7.2l-4.8-28 20.3-19.8c2-2 2.7-4.9 1.8-7.5z"/>
				</g>
			</g>
			<g>
				<g>
					<path class="s1" d="m705.9 91.1c-0.9-2.7-3.2-4.6-5.9-5l-28.2-4.1-12.6-25.4c-2.5-5-10.7-5-13.2 0l-12.5 25.4-28 4.1c-2.8 0.4-5.1 2.3-5.9 5-0.9 2.7-0.1 5.6 1.9 7.5l20.3 19.8-4.8 28c-0.5 2.8 0.7 5.6 2.9 7.2 2.3 1.6 5.3 1.9 7.8 0.6l25.1-13.2 25.1 13.2c1.1 0.6 2.3 0.8 3.4 0.8 1.5 0 3-0.5 4.3-1.4 2.3-1.7 3.4-4.4 2.9-7.2l-4.8-28 20.3-19.8c2-2 2.8-4.9 1.9-7.5z"/>
				</g>
			</g>
			<g>
				<g>
					<path class="s1" d="m823.6 91.1c-0.9-2.7-3.2-4.6-5.9-5l-28.1-4.1-12.6-25.4c-2.5-5-10.7-5-13.2 0l-12.5 25.4-28 4.1c-2.8 0.4-5.1 2.3-5.9 5-0.9 2.7-0.1 5.6 1.9 7.5l20.3 19.8-4.8 28c-0.5 2.8 0.7 5.6 2.9 7.2 1.3 0.9 2.8 1.4 4.3 1.4 1.2 0 2.4-0.3 3.4-0.8l25.1-13.2 25.1 13.2c2.5 1.3 5.5 1.1 7.7-0.6 2.3-1.6 3.4-4.4 2.9-7.2l-4.8-28 20.3-19.8c2.1-2 2.8-4.9 1.9-7.5z"/>
				</g>
			</g>
		</g>
		<path class="s2" d="m46.1 125.6l-7.2 27-26.4 0.6c-8-14.7-12.5-31.5-12.5-49.3 0-17.2 4.2-33.5 11.6-47.8l23.5 4.3 10.3 23.4q-3.3 9.5-3.3 20.1c0 7.6 1.4 14.9 4 21.7z"/>
		<path class="s3" d="m169 184.9c-17.8 14.3-40.4 22.9-65 22.9-39.6 0-74-22.1-91.5-54.7l33.7-27.6c8.8 23.4 31.4 40.1 57.9 40.1 11.4 0 22-3.1 31.2-8.4z"/>
		<path class="s4" d="m170.2 23.9l-33.7 27.6c-9.5-5.9-20.7-9.3-32.7-9.3-27.1 0-50.1 17.4-58.4 41.7l-33.8-27.8c17.3-33.3 52.1-56.1 92.3-56.1 25.2 0 48.3 9 66.3 23.9z"/>
	</g>
</svg>