<?xml version="1.0" encoding="UTF-8" standalone="no" ?>
<!DOCTYPE svg PUBLIC "-//W3C//DTD SVG 1.1//EN" "http://www.w3.org/Graphics/SVG/1.1/DTD/svg11.dtd">
<svg xmlns="http://www.w3.org/2000/svg" xmlns:xlink="http://www.w3.org/1999/xlink" version="1.1" width="32" height="32" viewBox="0 0 32 32" xml:space="preserve">
<desc>Created with Fabric.js 5.3.0</desc>
<defs>
</defs>
<g transform="matrix(5.78 0 0 3.57375 21.9084932061 17.5312396497)" id="BXPtli59WLPb02T8ekMxM"  >
<path style="stroke: rgb(52,53,73); stroke-width: 0; stroke-dasharray: none; stroke-linecap: butt; stroke-dashoffset: 0; stroke-linejoin: miter; stroke-miterlimit: 4; fill: rgb(244,107,55); fill-rule: nonzero; opacity: 1;"  transform=" translate(0, 0)" d="M -1.74292 -1.74292 L 1.61729 -1.74292 L 1.61729 -1.74292 C 1.68667 -1.74292 1.7429199999999998 -1.65195 1.7429199999999998 -1.53973 L 1.7429199999999998 1.50507 L 1.7429199999999998 1.50507 C 1.7429199999999998 1.6364299999999998 1.67708 1.7429199999999998 1.5958599999999998 1.7429199999999998 L -1.74292 1.7429199999999998 z" stroke-linecap="round" />
</g>
<g transform="matrix(0.9764822814 0 0 1.0164957695 7.6654127904 15.8189978214)" id="RHBRIPOQnZbQlVGSD5pmZ"  >
<path style="stroke: rgb(244,107,55); stroke-width: 0.3; stroke-dasharray: none; stroke-linecap: butt; stroke-dashoffset: 0; stroke-linejoin: miter; stroke-miterlimit: 4; fill: rgb(255,255,255); fill-rule: nonzero; opacity: 1;"  transform=" translate(-0.00001, -0.000005)" d="M 4.48802 -3.24854 L 0.2004399999999995 -7.66213 L -7.485830000000001 0.09786999999999946 L -6.387790000000001 0.09786999999999946 L -6.387790000000001 7.662139999999999 L 4.488029999999998 7.662139999999999 L 6.7886799999999985 7.662139999999999 L 6.7886799999999985 -0.11128000000000071 L 7.485849999999998 -0.11128000000000071 L 5.324629999999998 -2.272500000000001 L 5.324629999999998 -4.294290000000001 L 4.488029999999998 -4.294290000000001 z" stroke-linecap="round" />
</g>
<g transform="matrix(0.9488710976 0 0 1.1735184559 8 19.137254902)" id="93iGgDABK1GtbCdvtYESp"  >
<path style="stroke: none; stroke-width: 1; stroke-dasharray: none; stroke-linecap: butt; stroke-dashoffset: 0; stroke-linejoin: miter; stroke-miterlimit: 4; fill: rgb(0,60,125); fill-rule: nonzero; opacity: 1;"  transform=" translate(-7.9795, -19.2805)" d="M 2.855 22.243 L 1.922 22.243 L 1.922 16.325 L 2.855 16.325 L 2.855 18.743 L 5.011 18.743 L 5.011 16.325 L 5.945 16.325 L 5.945 22.243 L 5.011 22.243 L 5.011 19.529 L 2.855 19.529 L 2.855 22.243 Z M 7.64 22.243 L 6.706 22.243 L 6.706 16.325 L 10.093 16.325 L 10.093 17.111 L 7.64 17.111 L 7.64 18.747 L 9.347 18.747 L 9.347 19.536 L 7.64 19.536 L 7.64 22.243 Z M 10.186 20.728 L 10.186 20.728 L 10.936 20.482 Q 10.94 20.482 10.951 20.54 Q 10.963 20.599 10.992 20.695 Q 11.022 20.79 11.074 20.905 Q 11.127 21.021 11.229 21.136 Q 11.33 21.251 11.467 21.345 L 11.467 21.345 Q 11.772 21.56 12.225 21.56 Q 12.678 21.56 12.891 21.337 Q 13.104 21.114 13.104 20.808 Q 13.104 20.501 13.041 20.312 Q 12.979 20.122 12.822 19.982 L 12.822 19.982 Q 12.561 19.747 11.916 19.56 L 11.916 19.56 Q 10.779 19.228 10.455 18.532 L 10.455 18.532 Q 10.287 18.169 10.287 17.677 L 10.287 17.677 Q 10.287 17.263 10.58 16.868 L 10.58 16.868 Q 11.092 16.216 12.033 16.216 L 12.033 16.216 Q 12.779 16.216 13.256 16.665 L 13.256 16.665 Q 13.596 16.982 13.764 17.462 L 13.764 17.462 L 13.838 17.669 Q 13.873 17.763 13.885 17.79 L 13.885 17.79 L 13.123 18.06 Q 12.865 17.239 12.319 17.048 L 12.319 17.048 Q 12.182 17.001 12.033 17.001 L 12.033 17.001 Q 11.221 17.001 11.221 17.837 L 11.221 17.837 Q 11.221 18.22 11.447 18.423 L 11.447 18.423 Q 11.635 18.599 11.94 18.7 L 11.94 18.7 L 12.127 18.763 Q 12.287 18.818 12.303 18.821 L 12.303 18.821 L 12.475 18.88 Q 13.143 19.114 13.377 19.294 L 13.377 19.294 Q 13.721 19.56 13.826 19.782 L 13.826 19.782 Q 14.037 20.239 14.037 20.747 L 14.037 20.747 Q 14.037 21.146 13.811 21.556 L 13.811 21.556 Q 13.506 22.107 12.846 22.279 L 12.846 22.279 Q 12.592 22.345 12.291 22.345 Q 11.99 22.345 11.727 22.29 Q 11.463 22.236 11.272 22.142 Q 11.08 22.048 10.92 21.927 Q 10.76 21.806 10.651 21.671 Q 10.541 21.536 10.459 21.402 Q 10.377 21.267 10.328 21.146 Q 10.279 21.025 10.248 20.931 Q 10.217 20.837 10.203 20.782 Q 10.19 20.728 10.186 20.728 Z" stroke-linecap="round" />
</g>
<g transform="matrix(0.9280000983 0 0 1.0574837735 18.8845315904 13.9816514161)" id="EhpJQNOBzfxF2wEv_nHet"  >
<path style="stroke: none; stroke-width: 1; stroke-dasharray: none; stroke-linecap: butt; stroke-dashoffset: 0; stroke-linejoin: miter; stroke-miterlimit: 4; fill: rgb(255,255,255); fill-rule: nonzero; opacity: 1;"  transform=" translate(0, 0)" d="M -2.128 -1.0855 L -2.128 1.0555 L -2.3770000000000002 1.0555 L -2.3770000000000002 0.04850000000000021 L -3.505 0.04850000000000021 L -3.505 1.0555 L -3.754 1.0555 L -3.754 -1.0855 L -3.505 -1.0855 L -3.505 -0.17449999999999988 L -2.377 -0.17449999999999988 L -2.377 -1.0855 z M -0.371 0.2515 L -0.371 0.2515 C -0.371 0.5135000000000001 -0.437 0.71783 -0.569 0.8645 C -0.701 1.01183 -0.883 1.0855000000000001 -1.115 1.0855000000000001 L -1.115 1.0855000000000001 C -1.259 1.0855000000000001 -1.38667 1.05183 -1.498 0.9845000000000002 C -1.60933 0.9171700000000002 -1.695 0.8205000000000001 -1.755 0.6945000000000001 C -1.81567 0.5685000000000001 -1.8459999999999999 0.4208300000000001 -1.8459999999999999 0.2515000000000001 L -1.8459999999999999 0.2515000000000001 C -1.8459999999999999 -0.009829999999999894 -1.7806699999999998 -0.2134999999999999 -1.65 -0.3594999999999999 C -1.5193299999999998 -0.5054999999999998 -1.33767 -0.5784999999999999 -1.105 -0.5784999999999999 L -1.105 -0.5784999999999999 C -0.88033 -0.5784999999999999 -0.702 -0.5038299999999999 -0.57 -0.3544999999999999 C -0.43732999999999994 -0.20516999999999994 -0.37099999999999994 -0.0031699999999999506 -0.37099999999999994 0.25150000000000006 z M -1.594 0.2515 L -1.594 0.2515 C -1.594 0.45683 -1.5530000000000002 0.61317 -1.471 0.7204999999999999 C -1.389 0.82783 -1.2683300000000002 0.8815 -1.109 0.8815 L -1.109 0.8815 C -0.95033 0.8815 -0.8296699999999999 0.82817 -0.747 0.7214999999999999 C -0.66433 0.6141699999999999 -0.623 0.4574999999999999 -0.623 0.25149999999999995 L -0.623 0.25149999999999995 C -0.623 0.04749999999999996 -0.66433 -0.10750000000000004 -0.747 -0.21350000000000008 C -0.82967 -0.31950000000000006 -0.95133 -0.37250000000000005 -1.112 -0.37250000000000005 L -1.112 -0.37250000000000005 C -1.27133 -0.37250000000000005 -1.39167 -0.32017000000000007 -1.473 -0.21550000000000005 C -1.55367 -0.11083000000000005 -1.594 0.04482999999999995 -1.594 0.25149999999999995 z M 2.165 1.0555 L 1.921 1.0555 L 1.921 0.011500000000000066 C 1.921 -0.11649999999999994 1.89367 -0.21249999999999994 1.839 -0.2764999999999999 C 1.78433 -0.3404999999999999 1.69967 -0.37249999999999994 1.585 -0.37249999999999994 L 1.585 -0.37249999999999994 C 1.433 -0.37249999999999994 1.321 -0.32882999999999996 1.2489999999999999 -0.24149999999999994 C 1.1769999999999998 -0.15482999999999994 1.1409999999999998 -0.02116999999999994 1.1409999999999998 0.1595000000000001 L 1.1409999999999998 0.1595000000000001 L 1.1409999999999998 1.0555 L 0.8979999999999998 1.0555 L 0.8979999999999998 0.011500000000000066 C 0.8979999999999998 -0.11649999999999994 0.8703299999999998 -0.21249999999999994 0.8149999999999998 -0.2764999999999999 C 0.7603299999999998 -0.3404999999999999 0.6749999999999998 -0.37249999999999994 0.5589999999999998 -0.37249999999999994 L 0.5589999999999998 -0.37249999999999994 C 0.4069999999999998 -0.37249999999999994 0.2953299999999998 -0.32682999999999995 0.2239999999999998 -0.23549999999999993 C 0.1533299999999998 -0.14416999999999994 0.11799999999999981 0.00550000000000006 0.11799999999999981 0.21350000000000008 L 0.11799999999999981 0.21350000000000008 L 0.11799999999999981 1.0555 L -0.12500000000000017 1.0555 L -0.12500000000000017 -0.5494999999999999 L 0.07299999999999984 -0.5494999999999999 L 0.11199999999999985 -0.3294999999999999 L 0.12399999999999985 -0.3294999999999999 C 0.16999999999999985 -0.4081699999999999 0.23466999999999985 -0.46916999999999986 0.31799999999999984 -0.5125 C 0.40132999999999985 -0.5565 0.49499999999999983 -0.5785 0.5989999999999999 -0.5785 L 0.5989999999999999 -0.5785 C 0.8496699999999999 -0.5785 1.0136699999999998 -0.48783 1.0909999999999997 -0.3065 L 1.0909999999999997 -0.3065 L 1.1029999999999998 -0.3065 C 1.1503299999999999 -0.3905 1.2196699999999998 -0.45682999999999996 1.3109999999999997 -0.5055000000000001 C 1.4016699999999997 -0.55417 1.5049999999999997 -0.5785 1.6209999999999998 -0.5785 L 1.6209999999999998 -0.5785 C 1.8029999999999997 -0.5785 1.9389999999999998 -0.53183 2.029 -0.4385 C 2.1196699999999997 -0.34582999999999997 2.165 -0.19683 2.165 0.008500000000000008 L 2.165 0.008500000000000008 z M 3.164 1.0855 L 3.164 1.0855 C 2.92667 1.0855 2.7393300000000003 1.01317 2.6020000000000003 0.8684999999999999 C 2.4646700000000004 0.72383 2.3960000000000004 0.5231699999999999 2.3960000000000004 0.26649999999999996 L 2.3960000000000004 0.26649999999999996 C 2.3960000000000004 0.007829999999999948 2.4596700000000005 -0.19783000000000006 2.587 -0.35050000000000003 C 2.7150000000000003 -0.5025000000000001 2.88633 -0.5785 3.101 -0.5785 L 3.101 -0.5785 C 3.30233 -0.5785 3.46133 -0.5125 3.578 -0.3805 C 3.69533 -0.24783 3.754 -0.07317000000000001 3.754 0.14350000000000002 L 3.754 0.14350000000000002 L 3.754 0.2975 L 2.6479999999999997 0.2975 C 2.6533299999999995 0.4855 2.7009999999999996 0.6285000000000001 2.7909999999999995 0.7264999999999999 C 2.8816699999999993 0.82383 3.0089999999999995 0.8724999999999999 3.1729999999999996 0.8724999999999999 L 3.1729999999999996 0.8724999999999999 C 3.3456699999999997 0.8724999999999999 3.5163299999999995 0.8364999999999999 3.6849999999999996 0.7645 L 3.6849999999999996 0.7645 L 3.6849999999999996 0.9814999999999999 C 3.5989999999999998 1.01817 3.5176699999999994 1.04483 3.441 1.0614999999999999 C 3.36433 1.0775 3.272 1.0855 3.1639999999999997 1.0855 z M 3.098 -0.3755 L 3.098 -0.3755 C 2.96933 -0.3755 2.86667 -0.3335 2.79 -0.2495 C 2.71333 -0.16549999999999998 2.668 -0.04916999999999999 2.654 0.09949999999999998 L 2.654 0.09949999999999998 L 3.493 0.09949999999999998 C 3.493 -0.05383000000000002 3.459 -0.17117000000000004 3.391 -0.2525 C 3.32233 -0.3345 3.22467 -0.3755 3.098 -0.3755 z" stroke-linecap="round" />
</g>
<g transform="matrix(0.9520107028 0 0 1 23.4596949891 18.173)" id="327z5s9zoxnzm1rtF9tHS"  >
<path style="stroke: none; stroke-width: 1; stroke-dasharray: none; stroke-linecap: butt; stroke-dashoffset: 0; stroke-linejoin: miter; stroke-miterlimit: 4; fill: rgb(255,255,255); fill-rule: nonzero; opacity: 1;"  transform=" translate(-22.7235, -18.246)" d="M 14.52 18.956 L 14.271 18.956 L 14.271 16.815 L 14.52 16.815 L 14.52 18.956 Z M 17.181 18.956 L 16.937 18.956 L 16.937 17.912 Q 16.937 17.72 16.855 17.624 Q 16.773 17.528 16.6 17.528 L 16.6 17.528 Q 16.373 17.528 16.265 17.659 Q 16.157 17.789 16.157 18.06 L 16.157 18.06 L 16.157 18.956 L 15.913 18.956 L 15.913 17.912 Q 15.913 17.72 15.831 17.624 Q 15.749 17.528 15.575 17.528 L 15.575 17.528 Q 15.347 17.528 15.24 17.665 Q 15.134 17.802 15.134 18.114 L 15.134 18.114 L 15.134 18.956 L 14.891 18.956 L 14.891 17.351 L 15.089 17.351 L 15.128 17.571 L 15.14 17.571 Q 15.209 17.453 15.334 17.388 Q 15.459 17.322 15.615 17.322 L 15.615 17.322 Q 15.991 17.322 16.107 17.594 L 16.107 17.594 L 16.119 17.594 Q 16.19 17.468 16.327 17.395 Q 16.463 17.322 16.637 17.322 L 16.637 17.322 Q 16.91 17.322 17.045 17.462 Q 17.181 17.601 17.181 17.909 L 17.181 17.909 L 17.181 18.956 Z M 18.249 18.986 L 18.249 18.986 Q 18.092 18.986 17.962 18.928 Q 17.833 18.87 17.745 18.75 L 17.745 18.75 L 17.727 18.75 Q 17.745 18.89 17.745 19.016 L 17.745 19.016 L 17.745 19.677 L 17.501 19.677 L 17.501 17.351 L 17.699 17.351 L 17.733 17.571 L 17.745 17.571 Q 17.838 17.439 17.963 17.38 Q 18.087 17.322 18.249 17.322 L 18.249 17.322 Q 18.568 17.322 18.741 17.54 Q 18.915 17.758 18.915 18.152 L 18.915 18.152 Q 18.915 18.548 18.739 18.767 Q 18.562 18.986 18.249 18.986 Z M 18.213 17.528 L 18.213 17.528 Q 17.967 17.528 17.857 17.664 Q 17.748 17.801 17.745 18.098 L 17.745 18.098 L 17.745 18.152 Q 17.745 18.491 17.857 18.636 Q 17.97 18.782 18.219 18.782 L 18.219 18.782 Q 18.427 18.782 18.545 18.614 Q 18.663 18.445 18.663 18.149 L 18.663 18.149 Q 18.663 17.849 18.545 17.689 Q 18.427 17.528 18.213 17.528 Z M 19.892 17.322 L 19.892 17.322 Q 19.999 17.322 20.084 17.339 L 20.084 17.339 L 20.051 17.565 Q 19.951 17.543 19.875 17.543 L 19.875 17.543 Q 19.68 17.543 19.541 17.701 Q 19.403 17.859 19.403 18.095 L 19.403 18.095 L 19.403 18.956 L 19.16 18.956 L 19.16 17.351 L 19.361 17.351 L 19.388 17.648 L 19.4 17.648 Q 19.489 17.492 19.615 17.407 Q 19.741 17.322 19.892 17.322 Z M 21.59 18.152 L 21.59 18.152 Q 21.59 18.545 21.392 18.765 Q 21.195 18.986 20.846 18.986 L 20.846 18.986 Q 20.631 18.986 20.464 18.885 Q 20.297 18.784 20.206 18.595 Q 20.115 18.406 20.115 18.152 L 20.115 18.152 Q 20.115 17.76 20.311 17.541 Q 20.508 17.322 20.856 17.322 L 20.856 17.322 Q 21.193 17.322 21.392 17.546 Q 21.59 17.77 21.59 18.152 Z M 20.367 18.152 L 20.367 18.152 Q 20.367 18.46 20.49 18.621 Q 20.613 18.782 20.852 18.782 L 20.852 18.782 Q 21.091 18.782 21.214 18.622 Q 21.338 18.461 21.338 18.152 L 21.338 18.152 Q 21.338 17.846 21.214 17.687 Q 21.091 17.528 20.849 17.528 L 20.849 17.528 Q 20.61 17.528 20.489 17.685 Q 20.367 17.842 20.367 18.152 Z M 22.472 18.956 L 22.188 18.956 L 21.579 17.351 L 21.839 17.351 L 22.185 18.303 Q 22.302 18.637 22.323 18.737 L 22.323 18.737 L 22.335 18.737 Q 22.351 18.659 22.436 18.415 Q 22.522 18.171 22.821 17.351 L 22.821 17.351 L 23.082 17.351 L 22.472 18.956 Z M 23.838 18.986 L 23.838 18.986 Q 23.482 18.986 23.276 18.769 Q 23.07 18.552 23.07 18.167 L 23.07 18.167 Q 23.07 17.779 23.261 17.55 Q 23.452 17.322 23.775 17.322 L 23.775 17.322 Q 24.076 17.322 24.252 17.52 Q 24.428 17.719 24.428 18.044 L 24.428 18.044 L 24.428 18.198 L 23.322 18.198 Q 23.329 18.48 23.465 18.627 Q 23.6 18.773 23.846 18.773 L 23.846 18.773 Q 24.106 18.773 24.359 18.665 L 24.359 18.665 L 24.359 18.882 Q 24.23 18.937 24.115 18.962 Q 24 18.986 23.838 18.986 Z M 23.772 17.525 L 23.772 17.525 Q 23.578 17.525 23.463 17.651 Q 23.348 17.777 23.328 18 L 23.328 18 L 24.167 18 Q 24.167 17.77 24.065 17.648 Q 23.962 17.525 23.772 17.525 Z M 26.952 18.956 L 26.709 18.956 L 26.709 17.912 Q 26.709 17.72 26.627 17.624 Q 26.545 17.528 26.372 17.528 L 26.372 17.528 Q 26.145 17.528 26.037 17.659 Q 25.928 17.789 25.928 18.06 L 25.928 18.06 L 25.928 18.956 L 25.685 18.956 L 25.685 17.912 Q 25.685 17.72 25.603 17.624 Q 25.521 17.528 25.347 17.528 L 25.347 17.528 Q 25.118 17.528 25.012 17.665 Q 24.906 17.802 24.906 18.114 L 24.906 18.114 L 24.906 18.956 L 24.663 18.956 L 24.663 17.351 L 24.86 17.351 L 24.9 17.571 L 24.912 17.571 Q 24.98 17.453 25.106 17.388 Q 25.231 17.322 25.386 17.322 L 25.386 17.322 Q 25.763 17.322 25.878 17.594 L 25.878 17.594 L 25.89 17.594 Q 25.962 17.468 26.098 17.395 Q 26.234 17.322 26.409 17.322 L 26.409 17.322 Q 26.681 17.322 26.817 17.462 Q 26.952 17.601 26.952 17.909 L 26.952 17.909 L 26.952 18.956 Z M 27.951 18.986 L 27.951 18.986 Q 27.595 18.986 27.39 18.769 Q 27.184 18.552 27.184 18.167 L 27.184 18.167 Q 27.184 17.779 27.375 17.55 Q 27.566 17.322 27.888 17.322 L 27.888 17.322 Q 28.19 17.322 28.366 17.52 Q 28.542 17.719 28.542 18.044 L 28.542 18.044 L 28.542 18.198 L 27.436 18.198 Q 27.443 18.48 27.578 18.627 Q 27.714 18.773 27.96 18.773 L 27.96 18.773 Q 28.219 18.773 28.473 18.665 L 28.473 18.665 L 28.473 18.882 Q 28.344 18.937 28.229 18.962 Q 28.114 18.986 27.951 18.986 Z M 27.885 17.525 L 27.885 17.525 Q 27.692 17.525 27.577 17.651 Q 27.462 17.777 27.442 18 L 27.442 18 L 28.281 18 Q 28.281 17.77 28.178 17.648 Q 28.076 17.525 27.885 17.525 Z M 30.118 18.956 L 29.875 18.956 L 29.875 17.918 Q 29.875 17.722 29.785 17.625 Q 29.696 17.528 29.506 17.528 L 29.506 17.528 Q 29.254 17.528 29.137 17.664 Q 29.019 17.801 29.019 18.114 L 29.019 18.114 L 29.019 18.956 L 28.776 18.956 L 28.776 17.351 L 28.974 17.351 L 29.013 17.571 L 29.025 17.571 Q 29.1 17.452 29.235 17.387 Q 29.369 17.322 29.535 17.322 L 29.535 17.322 Q 29.825 17.322 29.971 17.462 Q 30.118 17.601 30.118 17.909 L 30.118 17.909 L 30.118 18.956 Z M 30.956 18.785 L 30.956 18.785 Q 31.02 18.785 31.081 18.776 Q 31.141 18.766 31.176 18.756 L 31.176 18.756 L 31.176 18.942 Q 31.136 18.961 31.059 18.973 Q 30.982 18.986 30.921 18.986 L 30.921 18.986 Q 30.455 18.986 30.455 18.495 L 30.455 18.495 L 30.455 17.54 L 30.225 17.54 L 30.225 17.423 L 30.455 17.322 L 30.558 16.979 L 30.698 16.979 L 30.698 17.351 L 31.164 17.351 L 31.164 17.54 L 30.698 17.54 L 30.698 18.485 Q 30.698 18.63 30.767 18.707 Q 30.836 18.785 30.956 18.785 Z" stroke-linecap="round" />
</g>
<g transform="matrix(0.9678137824 0 0 1 18.8845315904 21.6895)" id="o517o5DEioIqIBJR31vTP"  >
<path style="stroke: none; stroke-width: 1; stroke-dasharray: none; stroke-linecap: butt; stroke-dashoffset: 0; stroke-linejoin: miter; stroke-miterlimit: 4; fill: rgb(255,255,255); fill-rule: nonzero; opacity: 1;"  transform=" translate(-18.881, -21.6895)" d="M 16.496 22.745 L 15.302 22.745 L 15.302 20.604 L 15.551 20.604 L 15.551 22.52 L 16.496 22.52 L 16.496 22.745 Z M 18.029 21.941 L 18.029 21.941 Q 18.029 22.334 17.831 22.554 Q 17.633 22.775 17.284 22.775 L 17.284 22.775 Q 17.069 22.775 16.902 22.674 Q 16.735 22.573 16.644 22.384 Q 16.553 22.195 16.553 21.941 L 16.553 21.941 Q 16.553 21.549 16.75 21.33 Q 16.946 21.111 17.295 21.111 L 17.295 21.111 Q 17.632 21.111 17.83 21.335 Q 18.029 21.559 18.029 21.941 Z M 16.805 21.941 L 16.805 21.941 Q 16.805 22.249 16.928 22.41 Q 17.051 22.571 17.29 22.571 L 17.29 22.571 Q 17.529 22.571 17.653 22.411 Q 17.777 22.25 17.777 21.941 L 17.777 21.941 Q 17.777 21.635 17.653 21.476 Q 17.529 21.317 17.287 21.317 L 17.287 21.317 Q 17.049 21.317 16.927 21.474 Q 16.805 21.631 16.805 21.941 Z M 19.442 22.745 L 19.262 22.745 L 19.214 22.517 L 19.202 22.517 Q 19.082 22.668 18.963 22.721 Q 18.843 22.775 18.664 22.775 L 18.664 22.775 Q 18.426 22.775 18.29 22.652 Q 18.155 22.529 18.155 22.302 L 18.155 22.302 Q 18.155 21.815 18.933 21.792 L 18.933 21.792 L 19.205 21.783 L 19.205 21.683 Q 19.205 21.494 19.124 21.404 Q 19.042 21.314 18.864 21.314 L 18.864 21.314 Q 18.663 21.314 18.41 21.437 L 18.41 21.437 L 18.335 21.251 Q 18.454 21.187 18.595 21.15 Q 18.736 21.114 18.878 21.114 L 18.878 21.114 Q 19.165 21.114 19.304 21.241 Q 19.442 21.368 19.442 21.65 L 19.442 21.65 L 19.442 22.745 Z M 18.713 22.574 L 18.713 22.574 Q 18.94 22.574 19.069 22.45 Q 19.199 22.325 19.199 22.101 L 19.199 22.101 L 19.199 21.956 L 18.956 21.966 Q 18.666 21.976 18.538 22.056 Q 18.41 22.136 18.41 22.305 L 18.41 22.305 Q 18.41 22.436 18.489 22.505 Q 18.569 22.574 18.713 22.574 Z M 21.105 22.745 L 20.862 22.745 L 20.862 21.707 Q 20.862 21.511 20.773 21.414 Q 20.683 21.317 20.493 21.317 L 20.493 21.317 Q 20.241 21.317 20.124 21.453 Q 20.006 21.59 20.006 21.903 L 20.006 21.903 L 20.006 22.745 L 19.763 22.745 L 19.763 21.14 L 19.961 21.14 L 20.001 21.36 L 20.012 21.36 Q 20.087 21.241 20.222 21.176 Q 20.357 21.111 20.522 21.111 L 20.522 21.111 Q 20.812 21.111 20.959 21.251 Q 21.105 21.39 21.105 21.698 L 21.105 21.698 L 21.105 22.745 Z M 22.46 22.307 L 22.46 22.307 Q 22.46 22.532 22.293 22.653 Q 22.126 22.775 21.824 22.775 L 21.824 22.775 Q 21.505 22.775 21.326 22.674 L 21.326 22.674 L 21.326 22.448 Q 21.442 22.507 21.575 22.54 Q 21.707 22.574 21.83 22.574 L 21.83 22.574 Q 22.021 22.574 22.123 22.513 Q 22.226 22.452 22.226 22.328 L 22.226 22.328 Q 22.226 22.234 22.145 22.168 Q 22.063 22.101 21.827 22.01 L 21.827 22.01 Q 21.603 21.927 21.509 21.864 Q 21.414 21.802 21.368 21.723 Q 21.322 21.644 21.322 21.534 L 21.322 21.534 Q 21.322 21.338 21.482 21.224 Q 21.641 21.111 21.92 21.111 L 21.92 21.111 Q 22.179 21.111 22.427 21.216 L 22.427 21.216 L 22.34 21.414 Q 22.098 21.314 21.902 21.314 L 21.902 21.314 Q 21.729 21.314 21.641 21.368 Q 21.553 21.423 21.553 21.518 L 21.553 21.518 Q 21.553 21.582 21.586 21.628 Q 21.619 21.673 21.693 21.714 Q 21.766 21.755 21.974 21.833 L 21.974 21.833 Q 22.26 21.937 22.36 22.042 Q 22.46 22.148 22.46 22.307 Z" stroke-linecap="round" />
</g>
</svg>