<svg version="1.2" xmlns="http://www.w3.org/2000/svg" viewBox="0 0 435 113" width="435" height="113">
	<title>New Project</title>
	<style>
		.s0 { fill: #5f7f0d } 
	</style>
	<path id="LANDSCAPE" fill-rule="evenodd" class="s0" d="m222.4 43.6v21.3h12.2v4.1h-16.7v-25.4zm27.6 0l9.6 25.4h-4.6l-2.6-6.7h-9.4l-2.5 6.7h-4.4l9.5-25.4zm-2.3 5.1l-3.2 9.5h6.5zm20.8-5.1l12.3 18.9v-18.9h4.6v25.4h-5.6l-12.2-18.9v18.9h-4.5v-25.4zm31.3 0q5 0 8 1.8 3.1 1.8 4.3 4.4 1.3 2.7 1.3 5.7 0 4.6-2.2 8.1-2.1 3.5-7 4.9-1.5 0.3-3 0.4-1.4 0.1-3.7 0.1h-6.3v-25.4zm-4.1 4.1v17.2h3q2.9 0 5.3-0.7 2.3-0.8 3.6-3.3 0.5-0.7 0.8-1.9 0.3-1.3 0.3-2.9 0-4.1-2.2-6.3-2.3-2.1-6.6-2.1zm28.3 0.7q-1.3 0.9-1.3 2.3 0 1.2 1.2 1.9 1.2 0.7 3.9 1.5 2.6 0.9 4.3 1.7 1.8 0.7 3.1 2.3 1.2 1.5 1.2 3.9 0 1.9-1.1 3.6-1 1.7-3.4 2.8-2.4 1-6.1 1-2.2 0-4-0.4-1.8-0.4-4.2-1.4l-0.6-0.2 1.6-4.2 0.6 0.3q4.3 1.6 7 1.6 2.5 0 4-0.8 1.5-0.9 1.5-2.3 0.1-1.4-1.2-2.1-1.2-0.8-4-1.6-2.6-0.8-4.3-1.6-1.8-0.8-3-2.3-1.2-1.5-1.2-3.9 0-2.1 1.2-3.7 1.2-1.6 3.3-2.5 2.2-0.9 5.1-0.9 2.4 0 4.1 0.4 1.7 0.3 3.4 0.9l0.5 0.2-1.5 4.1q-1.8-0.7-3.3-1-1.5-0.4-3.1-0.4-2.3 0-3.7 0.8zm36.8-3.6l0.7 0.3-1.5 3.5-0.7-0.2q-1.9-0.7-3.1-0.8-1.2-0.2-2.6-0.2-2.7 0-4.8 1.2-1.9 1.1-3 3.2-1.1 2-1.1 4.5 0 4 2.5 6.5 2.6 2.5 7 2.5 2.3 0 5.5-1.2l0.7-0.3 1.4 3.7-0.6 0.2q-2.2 0.9-4 1.3-1.8 0.4-3.8 0.4-4 0-7.1-1.7-3-1.8-4.6-4.8-1.6-3-1.6-6.6 0-3.7 1.7-6.6 1.6-3 4.7-4.6 3.1-1.7 7.2-1.7 3.7 0 7.1 1.4zm17.1-1.2l9.6 25.4h-4.6l-2.6-6.7h-9.4l-2.5 6.7h-4.5l9.6-25.4zm-2.3 5.1l-3.3 9.6h6.5zm23.7-5.2q10.5 0 10.5 7.5 0 4.8-3.4 6.5-3.4 1.6-8.8 1.6-0.5 0.1-1.1 0-0.6 0-0.9-0.1v10h-4.6v-25.5zm-3.8 11.4q0.4 0 1.2 0.1h1.1q3.5 0 5.4-0.7 2-0.8 2-3.2 0-2.1-1.7-2.8-1.7-0.7-4.6-0.7h-3.4zm18.3-11.4h16.7v4.1h-12.1v6.4h10.8v4.1h-10.8v6.7h12.1v4.1h-16.7z"/>
	<path id="HOUSTON" fill-rule="evenodd" class="s0" d="m239.2 4.6v25.4h-4.5v-10.6h-12.3v10.6h-4.5v-25.4h4.5v10.6h12.3v-10.6zm23.7 1.2q2.9 1.6 4.6 4.5 1.6 2.9 1.6 6.8 0 3.8-1.6 6.8-1.7 3-4.6 4.8-2.8 1.6-6.4 1.6-3.3 0-6.2-1.5-2.8-1.5-4.5-4.4-1.8-3-1.8-7.1 0-3.9 1.7-6.8 1.6-3 4.5-4.6 2.9-1.7 6.4-1.7 3.5 0 6.3 1.6zm-10.3 3.6q-1.7 0.9-2.9 2.8-1.1 1.9-1.1 4.8 0 2.7 1.1 4.8 1.1 2 2.9 3.2 1.9 1.1 4.1 1.1 2 0 3.8-1 1.8-0.9 2.9-2.9 1.1-2 1.1-4.9 0-3-1.2-5-1.2-2-3.1-2.9-1.8-1-3.8-1-2 0-3.8 1zm24.5 19.4q-2.3-1.6-2.9-3.7-0.6-2-0.6-4.3v-16.2h4.5v16q0 1.1 0.2 2.1 0.4 1.7 1.9 2.6 1.5 0.9 3.7 0.9 2.4 0 3.9-0.9 1.4-0.9 1.9-2.6 0.1-0.9 0.1-2.1v-16h4.6v16.2q0 2.3-0.7 4.3-0.6 2.1-2.9 3.7-2.2 1.6-6.9 1.6-4.5 0-6.8-1.6zm28.7-19.4q-1.3 0.9-1.3 2.3 0 1.2 1.2 1.9 1.2 0.7 3.8 1.5 2.7 0.8 4.4 1.6 1.8 0.8 3 2.3 1.3 1.6 1.3 3.9 0 2-1.1 3.7-1 1.6-3.4 2.8-2.4 1-6.1 1-2.2 0-4-0.4-1.8-0.5-4.2-1.4l-0.6-0.3 1.5-4.1 0.7 0.3q4.2 1.6 7 1.6 2.5 0 4-0.9 1.5-0.8 1.5-2.3 0.1-1.4-1.2-2.1-1.2-0.7-4-1.5-2.6-0.9-4.3-1.6-1.8-0.8-3-2.3-1.2-1.5-1.2-3.9 0-2.1 1.2-3.7 1.1-1.6 3.3-2.5 2.2-1 5.1-1 2.4 0 4.1 0.4 1.7 0.4 3.4 1l0.5 0.2-1.5 4.1q-1.8-0.7-3.3-1-1.5-0.4-3.1-0.4-2.4 0-3.7 0.8zm35.8-4.8v4h-8.3v21.4h-4.5v-21.4h-8.3v-4zm21.1 1.2q2.9 1.6 4.6 4.5 1.6 2.9 1.6 6.8 0 3.8-1.6 6.8-1.6 3-4.6 4.8-2.8 1.6-6.4 1.6-3.3 0-6.1-1.5-2.9-1.5-4.6-4.4-1.8-3-1.8-7.1 0-3.9 1.7-6.8 1.7-3 4.5-4.6 2.9-1.7 6.4-1.7 3.5 0 6.3 1.6zm-10.3 3.6q-1.7 0.9-2.8 2.8-1.1 1.9-1.1 4.8 0 2.7 1 4.8 1.1 2 2.9 3.2 1.9 1.1 4.1 1.1 2 0 3.8-1 1.8-0.9 2.9-2.9 1.1-2 1.1-4.9 0-3-1.2-5-1.2-2-3-2.9-1.9-1-3.9-1-2 0-3.8 1zm26.7-4.8l12.3 18.8v-18.8h4.6v25.4h-5.5l-12.3-18.9v18.9h-4.5v-25.4z"/>
	<path id="IMAGES" fill-rule="evenodd" class="s0" d="m222.4 82.6v25.4h-4.5v-25.4zm11.9 0l6.9 13.9 7-13.9h5.8v25.4h-4.5v-19.2l-6.5 12.7h-3.8l-6.4-12.7v19.2h-4.6v-25.4zm37.2 0l9.6 25.4h-4.6l-2.6-6.7h-9.4l-2.5 6.7h-4.5l9.6-25.4zm-2.3 5.1l-3.3 9.5h6.5zm37.2 17.7q-3.4 2.9-9.5 3-4.4 0-7.4-1.9-3-1.9-4.5-4.9-1.5-3-1.5-6.3 0-3.4 1.6-6.4 1.6-2.9 4.6-4.7 3.1-1.8 7.2-1.8 4.5 0 8.4 2.2l0.7 0.4-1.9 3.5-0.7-0.3q-1.3-0.7-3-1.2-1.6-0.5-3.4-0.5-2.3 0-4.3 1.1-2.1 1-3.3 3-1.3 1.9-1.3 4.5 0 2.6 1.2 4.7 1.3 2.1 3.4 3.3 2.2 1.1 4.9 1.1 1.5 0 2.4-0.2 1-0.2 1.9-0.7v-5.4h-6.7v-4.1h11.1zm5-22.8h16.7v4.1h-12.1v6.4h10.8v4.1h-10.8v6.7h12.1v4.2h-16.7zm27.6 4.8q-1.4 0.9-1.4 2.3 0 1.2 1.2 1.9 1.3 0.7 3.9 1.5 2.7 0.8 4.4 1.6 1.8 0.8 3 2.3 1.3 1.6 1.3 3.9 0 2-1.1 3.7-1.1 1.6-3.5 2.8-2.3 1-6 1-2.2 0-4-0.4-1.8-0.5-4.2-1.4l-0.6-0.3 1.5-4.1 0.7 0.3q4.2 1.6 6.9 1.6 2.5 0 4.1-0.9 1.5-0.8 1.5-2.3 0-1.4-1.2-2.1-1.3-0.7-4-1.5-2.7-0.9-4.4-1.6-1.7-0.8-2.9-2.3-1.2-1.5-1.2-3.9 0-2.1 1.2-3.7 1.1-1.6 3.3-2.5 2.2-1 5-1 2.5 0 4.2 0.5 1.7 0.3 3.3 0.9l0.5 0.2-1.5 4.1q-1.7-0.7-3.2-1-1.5-0.4-3.1-0.4-2.4 0-3.7 0.8z"/>
	<path id="HLI" class="s0" d="m68.9 4.9v43.3h-49.9v-43.3h-18.4v103.1h18.4v-43.1h49.9v43.1h18.2v-103.1zm41.8 0v103.1h67.5v-16.7h-49.1v-86.4zm83 0v103.1h18.4v-103.1z"/>
</svg>