<svg version="1.2" xmlns="http://www.w3.org/2000/svg" viewBox="0 0 24 24" width="24" height="24">
	<title>Icons_pin (6)</title>
	<style>
		.s0 { fill: none;stroke: #82d179;stroke-linecap: round;stroke-linejoin: round;stroke-width: 2 } 
	</style>
	<path fill-rule="evenodd" class="s0" d="m20.2 10.2c0 6.3-8.2 11.8-8.2 11.8 0 0-8.2-5.5-8.2-11.8 0-2.2 0.9-4.3 2.4-5.8 1.5-1.5 3.6-2.4 5.8-2.4 2.2 0 4.3 0.9 5.8 2.4 1.5 1.5 2.4 3.6 2.4 5.8z"/>
	<path fill-rule="evenodd" class="s0" d="m12 12.9c0.7 0 1.4-0.3 1.9-0.8 0.5-0.5 0.8-1.2 0.8-1.9 0-0.7-0.3-1.4-0.8-1.9-0.5-0.6-1.2-0.8-1.9-0.8-0.7 0-1.4 0.2-1.9 0.8-0.5 0.5-0.8 1.2-0.8 1.9 0 0.7 0.3 1.4 0.8 1.9 0.5 0.5 1.2 0.8 1.9 0.8z"/>
</svg>