<svg version="1.2" xmlns="http://www.w3.org/2000/svg" viewBox="0 0 24 24" width="24" height="24">
	<title>Icons_phone</title>
	<style>
		.s0 { fill: none;stroke: #82d179;stroke-linecap: round;stroke-width: 2 } 
	</style>
	<g>
		<path fill-rule="evenodd" class="s0" d="m18.7 14.3q-0.3 0-0.6 0-0.3-0.1-0.6-0.2-0.3 0-0.5-0.1-0.3-0.1-0.6-0.2-0.2-0.1-0.4-0.1-0.3 0-0.5 0-0.2 0.1-0.4 0.2-0.2 0.1-0.4 0.2c-0.6 0.7-1.5 0.8-2.2 0.3q-0.4-0.3-0.8-0.6-0.4-0.4-0.7-0.7-0.4-0.4-0.7-0.8-0.4-0.3-0.7-0.7c-0.5-0.7-0.3-1.7 0.3-2.3 0.4-0.4 0.6-1.1 0.3-1.7q-0.1-0.2-0.2-0.5-0.1-0.3-0.1-0.6-0.1-0.3-0.2-0.6 0-0.3-0.1-0.6 0-0.2-0.2-0.5-0.1-0.2-0.4-0.4-0.2-0.2-0.4-0.3-0.3-0.1-0.6-0.1h-2.4c-0.4 0-0.9 0.2-1.2 0.5-0.3 0.4-0.4 0.8-0.4 1.2q0.1 1 0.3 1.9 0.2 0.9 0.5 1.8 0.3 0.9 0.8 1.7 0.4 0.8 0.9 1.6 0.4 0.7 1 1.4 0.5 0.7 1.1 1.3 0.6 0.6 1.3 1.1 0.7 0.6 1.4 1 0.8 0.5 1.6 0.9 0.9 0.5 1.7 0.8 0.9 0.3 1.8 0.5 0.9 0.2 1.9 0.3h0.1c0.4 0 0.8-0.1 1.1-0.4q0.1-0.1 0.2-0.3 0.1-0.1 0.2-0.3 0-0.1 0.1-0.3 0-0.1 0-0.3v-2.4q0-0.3-0.1-0.6-0.1-0.2-0.3-0.5-0.1-0.2-0.4-0.4-0.2-0.1-0.5-0.2z"/>
	</g>
</svg>