<svg version="1.2" xmlns="http://www.w3.org/2000/svg" viewBox="0 0 24 24" width="24" height="24">
	<title>Icons_mail (3)</title>
	<style>
		.s0 { fill: none;stroke: #82d179;stroke-linecap: round;stroke-linejoin: round;stroke-width: 2 } 
	</style>
	<path fill-rule="evenodd" class="s0" d="m4.2 18.8q-0.3-0.1-0.6-0.4-0.3-0.3-0.4-0.6-0.2-0.4-0.2-0.8v-10q0-0.4 0.2-0.8 0.1-0.3 0.4-0.6 0.3-0.3 0.6-0.4 0.4-0.2 0.8-0.2h14q0.4 0 0.8 0.2 0.3 0.1 0.6 0.4 0.3 0.3 0.4 0.6 0.2 0.4 0.2 0.8v10q0 0.4-0.2 0.8-0.1 0.3-0.4 0.6-0.3 0.3-0.6 0.4-0.4 0.2-0.8 0.2h-14q-0.4 0-0.8-0.2zm-1.2-10.8l7.9 5.3q0.2 0.1 0.5 0.2 0.3 0.1 0.6 0.1 0.3 0 0.6-0.1 0.3-0.1 0.5-0.2l7.9-5.3z"/>
</svg>