<svg version="1.2" xmlns="http://www.w3.org/2000/svg" viewBox="0 0 2546 2625" width="2546" height="2625"><style>.a{fill:#82d179}.b{fill:#fffffe}</style><path class="a" d="m1250.5 393.6c-3.8 0.2-15.5 0.8-26 1.4-10.5 0.6-26 1.8-34.5 2.6-8.5 0.8-20.7 2.2-27 3-6.3 0.8-18.9 2.6-28 4-9.1 1.3-22.1 3.5-29 4.9-6.9 1.3-17.9 3.6-24.5 5-6.6 1.4-20.5 4.8-31 7.6-10.5 2.8-25.8 7-34 9.4-8.3 2.4-23.3 7.3-33.5 10.9-10.2 3.5-23.2 8.2-29 10.4-5.8 2.2-19.7 7.9-31 12.7-11.3 4.7-31.3 14-44.5 20.5-13.2 6.5-31.2 15.9-40 20.8-8.8 4.8-23.2 13.3-32 18.7-8.8 5.4-24.3 15.4-34.5 22.3-10.2 6.8-26.1 18.2-35.5 25.2-9.4 7-24 18.5-32.5 25.5-8.5 7.1-20.9 17.6-27.5 23.4-6.6 5.8-23.5 22-37.6 36-14 14.1-31.8 32.8-39.5 41.6-7.7 8.8-19.4 22.7-26 31-6.6 8.2-15.4 19.5-19.5 25-4.1 5.5-11.4 15.5-16.2 22.2-4.8 6.8-13.1 19.2-18.5 27.5-5.4 8.4-13.4 21.1-17.6 28.3-4.3 7.1-11.7 20-16.4 28.5-4.7 8.5-13.8 26.3-20.3 39.5-6.4 13.2-14.3 30.1-17.4 37.5-3.2 7.4-8.4 20-11.5 28-3.2 8-7.8 20.4-10.3 27.5-2.5 7.1-6.9 20.2-9.7 29-2.8 8.8-7.3 24.1-10 34-2.7 9.9-6.7 25.9-8.9 35.5-2.2 9.6-5.4 24.5-7 33-1.6 8.5-4.1 22.9-5.5 32-1.4 9.1-3.5 24.2-4.5 33.5-1.1 9.3-2.5 22.8-3.1 30-0.5 7.2-1.5 21.8-2 32.5-0.5 10.7-1 29.6-1 42 0 12.4 0.5 31.7 1 43 0.6 11.3 1.7 28.4 2.6 38 0.8 9.6 2.4 24.7 3.5 33.5 1.1 8.8 3.8 26.3 5.9 39 2.1 12.7 5.9 32.2 8.5 43.5 2.5 11.3 7 29.5 10 40.5 3 11 7.7 27.2 10.5 36 2.8 8.8 7.2 21.8 9.7 29 2.4 7.2 8.1 22 12.5 33 4.4 11 11 26.7 14.8 35 3.7 8.2 10.9 23.2 15.9 33.2 5 10.1 12.5 24.5 16.7 32 4.2 7.6 11.2 19.9 15.7 27.3 4.4 7.4 12.5 20.5 18 29 5.5 8.5 15.5 23.2 22.2 32.5 6.6 9.3 17.7 24.2 24.7 33 6.9 8.8 18.3 22.7 25.4 31 7.1 8.2 19.2 21.7 27 30 7.7 8.2 21.5 22.2 30.5 31 9.1 8.8 23.8 22.4 32.7 30.2 8.9 7.9 22.6 19.4 30.5 25.6 7.8 6.3 20.3 15.9 27.7 21.4 7.4 5.5 21.8 15.7 32 22.5 10.2 6.9 25.7 16.9 34.5 22.3 8.8 5.4 23.2 13.9 32 18.7 8.8 4.9 26.8 14.3 40 20.8 13.2 6.5 33.2 15.8 44.5 20.5 11.3 4.8 25.2 10.5 31 12.7 5.8 2.2 18.8 6.9 29 10.4 10.2 3.6 25.3 8.5 33.5 10.9 8.3 2.4 23.5 6.6 34 9.4 10.5 2.8 24.4 6.2 31 7.6 6.6 1.4 17.6 3.7 24.5 5 6.9 1.4 19.5 3.6 28 5 8.5 1.3 27.7 3.8 42.5 5.5 14.8 1.6 35.8 3.5 46.5 4.2 10.7 0.6 35.5 1.2 55 1.2 19.5-0.1 43.6-0.6 53.5-1.3 9.9-0.6 27-2.1 38-3.2 11-1.1 27.9-3.1 37.5-4.5 9.6-1.4 25.8-4 36-5.9 10.2-1.9 26.4-5.2 36-7.4 9.6-2.3 26.5-6.5 37.5-9.5 11-3 27.9-8 37.5-11.2 9.6-3.1 25.8-8.7 36-12.4 10.2-3.7 27.7-10.7 39-15.5 11.3-4.8 30.4-13.5 42.5-19.4 12.1-5.9 30.1-15.1 40-20.6 9.9-5.4 25-14.1 33.5-19.3 8.5-5.2 24-15.2 34.5-22.2 10.5-6.9 25.3-17.3 33-22.9 7.7-5.7 21.4-16.3 30.5-23.6 9.1-7.3 22.3-18.3 29.5-24.6 7.2-6.2 26.1-24.4 42.1-40.3 16-16 34.9-35.8 42-44 7.1-8.1 19.6-23.3 27.9-33.6 8.3-10.3 19.8-25.5 25.6-33.6 5.9-8.2 14.3-20.3 18.6-26.9 4.4-6.6 12.1-18.5 17-26.5 5-8 12.7-21 17.3-29 4.5-8 12.6-23 18.1-33.5 5.4-10.5 13.7-27.5 18.4-38 4.8-10.5 12.8-29.6 18-42.5 5.1-12.9 12.4-33.2 16.3-45 3.9-11.8 8.4-26 10.1-31.5 1.6-5.5 5.3-18.8 8-29.5 2.7-10.7 6.6-26.9 8.5-36 1.9-9.1 4.9-24.4 6.5-34 1.7-9.6 4.2-25.8 5.5-36 1.4-10.2 3.2-26.2 4-35.5 0.9-9.3 2-25.1 2.6-35 0.5-9.9 1-32 1-49 0-17-0.5-39.1-1-49-0.6-9.9-1.7-25.7-2.6-35-0.8-9.3-2.6-25.1-3.9-35-1.3-9.9-3.6-25-5-33.5-1.4-8.5-4-22-5.6-30-1.7-8-5-22.8-7.5-33-2.5-10.2-7-26.8-9.9-37-3-10.2-8.3-27-11.8-37.5-3.5-10.5-9-25.8-12.2-34-3.2-8.3-9.3-23.3-13.7-33.5-4.4-10.2-13.5-29.8-20.3-43.5-6.8-13.8-17.3-33.5-23.3-44-6-10.5-14.4-24.6-18.7-31.5-4.3-6.9-11.5-18.1-16.1-25-4.5-6.9-12.9-18.9-18.6-26.7-5.7-7.8-14.4-19.5-19.5-26-5-6.5-13.8-17.4-19.6-24.3-5.7-6.9-16.7-19.5-24.4-28-7.7-8.5-24.3-25.6-36.9-38-12.6-12.4-29.4-28.2-37.4-35.1-8-6.9-19.9-17-26.5-22.4-6.6-5.4-19.7-15.5-29-22.5-9.3-7-25.8-18.6-36.5-25.7-10.7-7.1-26.5-17.3-35-22.5-8.5-5.2-23.6-13.9-33.5-19.3-9.9-5.4-27.9-14.7-40-20.6-12.1-5.9-31.2-14.6-42.5-19.4-11.3-4.8-26.6-11-34-13.7-7.4-2.8-20.7-7.4-29.5-10.4-8.8-3-23-7.5-31.5-10-8.5-2.5-25-7-36.5-9.9-11.5-3-30-7.2-41-9.4-11-2.2-27.4-5.1-36.5-6.5-9.1-1.4-21.7-3.2-28-4-6.3-0.8-16.5-2-22.5-2.6-6-0.6-20.2-1.7-31.5-2.5-11.3-0.8-34-1.6-50.5-1.9-16.5-0.2-33.2-0.2-37 0z"/><path class="b" d="m1110 671c-24.5 0.4-56 1.2-70 1.9-14 0.6-32.7 1.6-41.5 2.2-8.8 0.6-23.9 2.1-33.5 3.5-9.6 1.4-22.9 3.6-29.5 5-6.6 1.4-16.3 3.6-21.5 4.9-5.2 1.3-16.5 4.6-25 7.4-8.5 2.8-21.1 7.3-28 10.1-6.9 2.9-18.1 8-25 11.5-6.9 3.5-17.5 9.5-23.5 13.2-6 3.8-16.2 10.7-22.5 15.4-6.3 4.8-16.2 12.9-22 18.1-5.8 5.2-14.3 13.5-18.9 18.4-4.6 4.9-11.8 13.2-16 18.4-4.2 5.2-12.3 16.4-18 25-6.3 9.6-13.7 22.4-19.1 33.5-4.9 9.9-11.3 25-14.3 33.5-3 8.5-7.3 22-9.6 30-2.2 8-5.2 19.7-6.6 26-1.4 6.3-3.4 16.7-4.5 23-1 6.3-2.6 17.6-3.5 25-0.8 7.4-2.2 27.9-3 45.5-0.8 17.6-2 52.3-2.6 77-0.7 29.5-0.9 104.1-0.6 217 0.3 102.1 0.9 178.9 1.6 189 0.5 9.3 1.5 26 2.1 37 0.5 11 1.7 26.1 2.6 33.5 0.8 7.4 2.4 18.9 3.5 25.5 1.1 6.6 3.4 18.1 5.1 25.5 1.6 7.4 5 20.1 7.4 28.3 2.4 8.1 6.7 20.9 9.5 28.4 2.8 7.6 8.6 21 13 29.8 4.3 8.8 10.9 20.8 14.6 26.8 3.8 5.9 10.2 15.3 14.3 21 4.1 5.6 11.4 14.7 16.1 20.2 4.7 5.5 13.5 14.7 19.5 20.4 6 5.7 15.6 14.2 21.4 18.8 5.8 4.7 16.1 12.2 23 16.8 6.9 4.6 16.5 10.5 21.5 13.3 5 2.7 14.4 7.4 21 10.4 6.6 3.1 18.3 7.8 26 10.6 7.7 2.7 20.5 6.8 28.5 9.1 8 2.2 19.5 5.2 25.5 6.6 6 1.4 17.5 3.6 25.5 4.9 8 1.4 18.3 2.9 23 3.5 4.7 0.6 16.6 1.5 26.5 2.1 9.9 0.6 27.7 1.5 39.5 2 11.8 0.5 74.6 1.5 139.5 2.1 91.2 0.9 141.2 0.9 220 0 56.1-0.6 108.8-1.6 117-2.1 8.3-0.5 23.3-1.4 33.5-2 10.2-0.6 25.3-2 33.5-3.1 8.3-1.1 22.7-3.6 32-5.5 9.3-1.9 24.7-5.6 34-8.3 9.3-2.7 22.8-7 30-9.6 7.2-2.6 18-7 24-9.8 6-2.8 15.5-7.5 21-10.5 5.5-2.9 15.6-9.1 22.5-13.7 6.9-4.6 17.5-12.3 23.5-17.2 6-4.8 16.1-13.7 22.4-19.8 6.2-6 15.7-16.2 21-22.5 5.3-6.3 12.8-16 16.7-21.5 3.9-5.5 9.8-14.5 13.1-20 3.3-5.5 8.8-15.5 12.2-22.3 3.3-6.7 7.8-16.6 10-21.9 2.1-5.4 5.9-15.9 8.4-23.3 2.5-7.4 6.1-19.6 8-27 2-7.4 4.7-19.1 6.1-26 1.4-6.9 3.4-18.8 4.5-26.5 1.1-7.7 2.5-19.4 3-26 0.6-6.6 1.9-31.6 2.8-55.5 1.6-37.8 1.8-69.1 1.8-239.5 0-173.7-0.2-199.9-1.8-230.5-0.9-19-2.2-40.4-2.8-47.5-0.5-7.1-1.9-19.3-3-27-1.1-7.7-3.1-19.6-4.5-26.5-1.4-6.9-4.3-19.3-6.6-27.5-2.2-8.2-6-21.1-8.5-28.5-2.6-7.4-7.5-20-11-28-3.5-8-9.1-19.5-12.4-25.5-3.3-6-9.8-16.6-14.4-23.5-4.6-6.9-12.1-17.2-16.7-23-4.6-5.8-12.4-14.7-17.4-19.9-4.9-5.2-13.2-13.2-18.4-17.9-5.2-4.7-14.5-12.2-20.5-16.7-6-4.6-16.4-11.7-23-15.8-6.6-4.1-18.1-10.5-25.5-14.2-7.4-3.7-18.9-8.9-25.5-11.5-6.6-2.6-18.5-6.9-26.5-9.4-8-2.6-18.8-5.8-24-7.1-5.2-1.3-16.3-3.8-24.5-5.4-8.3-1.6-21.8-3.9-30-5-8.3-1.1-22.9-2.5-32.5-3-9.6-0.6-29.2-1.6-43.5-2.2-14.3-0.6-59.3-1.5-100-1.9-40.7-0.5-114.7-0.8-164.5-0.8-49.8 0.1-110.5 0.5-135 0.8z"/><path class="a" d="m1115 783.6c-10.7 0.2-32.1 0.8-47.5 1.4-15.4 0.6-37.7 1.5-49.5 2-11.8 0.6-25.3 1.5-30 2.1-4.7 0.5-14.6 2.2-22 3.5-7.4 1.4-17.8 3.6-23 4.9-5.2 1.3-16.3 4.7-24.5 7.5-8.3 2.8-20.4 7.7-27 10.9-6.6 3.3-16.5 8.9-22 12.6-5.5 3.7-13.4 9.5-17.5 12.9-4.1 3.3-11.3 9.9-16 14.6-4.7 4.7-11.5 12.3-15.1 17-3.7 4.7-9.1 12.3-12.2 17-3 4.7-7.7 13-10.5 18.5-2.7 5.5-6.6 14.3-8.5 19.5-2 5.2-5.1 14.7-7 21-1.9 6.3-4.7 16.7-6.1 23-1.4 6.3-3.4 17.8-4.5 25.5-1.2 7.7-2.6 23.2-3.1 34.5-0.6 11.3-1.6 27.9-2.2 37-0.7 10.5-1.2 82.8-1.5 198.5-0.3 118.7-0.1 195.2 0.6 220 0.6 20.9 1.6 46.3 2.1 56.5 0.6 10.2 1.5 24.3 2 31.5 0.6 7.2 2 18.6 3.1 25.5 1.2 6.9 3.6 18.6 5.4 26 1.9 7.4 5.2 19.1 7.5 26 2.3 6.9 7.3 18.8 11 26.5 3.7 7.7 10 18.7 13.8 24.5 3.8 5.8 10.6 14.8 14.9 20 4.4 5.2 12.2 13.3 17.4 17.9 5.2 4.7 13 11.2 17.4 14.4 4.4 3.3 12.3 8.4 17.5 11.5 5.2 3.1 13.5 7.5 18.5 9.8 5 2.3 13.7 5.8 19.5 7.8 5.8 2.1 15.5 5 21.5 6.6 6 1.6 16.4 4.1 23 5.4 6.6 1.4 17.2 3.2 23.5 4 6.3 0.8 21.6 2 34 2.6 12.4 0.6 30.8 1.6 41 2.1 10.2 0.5 91.6 1.2 181 1.5 105.2 0.4 178.4 0.2 207.5-0.5 24.8-0.6 55.6-1.5 68.5-2.1 12.9-0.6 29.8-1.5 37.5-2 7.7-0.5 20.5-2.1 28.5-3.4 8-1.4 20.3-3.9 27.5-5.6 7.2-1.8 18.6-5.1 25.5-7.4 6.9-2.4 17.5-6.6 23.5-9.5 6-2.9 14.8-7.6 19.5-10.4 4.7-2.8 12.8-8.4 18-12.3 5.2-3.9 13.5-10.9 18.4-15.5 4.9-4.6 12.5-12.9 16.9-18.4 4.5-5.5 10.7-14 13.9-19 3.3-5 8.5-14.4 11.8-21 3.2-6.6 7.9-17.8 10.3-25 2.5-7.2 6.1-19.3 8-27 1.9-7.7 4.3-18.3 5.2-23.5 0.9-5.2 2.3-14.7 3.1-21 0.8-6.3 1.9-24.1 2.4-39.5 0.6-15.4 1.3-29.1 1.5-30.5 0.3-1.4 0.9-41.9 1.4-90 0.6-52.3 0.6-137.6 0.1-212-0.6-84.1-1.4-135.4-2.4-158-0.9-18.4-2.1-38-2.7-43.5-0.6-5.5-1.9-15.2-2.9-21.5-1.1-6.3-3.6-18-5.6-26-2-8-5.6-20.4-8.1-27.5-2.4-7.2-7.1-18.4-10.3-25-3.3-6.6-8.9-16.5-12.5-22-3.7-5.5-10-14-14-19-4-5-10.8-12.4-15.1-16.5-4.4-4.1-11.1-10-14.9-13.1-3.8-3.1-11-8.3-16-11.6-5-3.4-15.1-9.1-22.5-12.7-7.4-3.7-20.5-8.9-29-11.7-8.5-2.8-22.3-6.6-30.5-8.4-8.2-1.9-21.3-4.3-29-5.4-8.1-1.2-31.2-3-55-4.2-38.7-2.1-50.6-2.2-212.5-2.4-94.3-0.1-180.3 0-191 0.1z"/><path class="b" d="m1570 888.6c-3.6 0.8-10.8 3.5-16 6.1-8.1 4-10.9 6.1-19 14.2-7.8 7.8-10.4 11.2-13.8 18.1-2.3 4.7-5.2 12.3-6.3 17-1.8 7.2-2.1 10.4-1.6 21 0.4 9.1 1.1 14.2 2.7 19 1.2 3.6 3.8 9.6 5.8 13.4 2.1 3.8 6.2 9.9 9.2 13.5 3.1 3.7 9.2 9 14 12.3 4.7 3.2 11 6.8 14 8 3 1.1 8 2.6 11 3.4 3 0.7 9.3 1.6 14 2 6.6 0.5 10.7 0.1 18.5-1.5 5.5-1.1 12.9-3.5 16.5-5.2 3.6-1.7 9.2-5 12.5-7.3 3.3-2.4 8.4-7 11.4-10.2 2.9-3.2 7.1-8.8 9.2-12.4 2.1-3.6 4.9-9.7 6.3-13.5 1.3-3.9 3-10.8 3.6-15.5 0.6-4.7 0.9-11.4 0.5-15-0.3-3.6-1.5-9.9-2.6-14-1.1-4.1-3.3-10.2-4.9-13.5-1.6-3.3-5.2-9.1-8.2-12.9-2.9-3.7-8-9.1-11.3-11.8-3.3-2.7-10-6.9-15-9.3-5-2.5-12.2-5.2-16-6-3.8-0.8-11.7-1.4-17.5-1.4-5.8 0-13.4 0.7-17 1.5zm-316 86.5c-6.3 0.5-16.5 1.6-22.5 2.4-6 0.9-16.2 2.7-22.5 4.1-6.3 1.3-17.6 4.3-25 6.5-7.4 2.3-18.9 6.2-25.5 8.9-6.6 2.6-17.4 7.4-24 10.7-6.6 3.3-16.7 8.8-22.5 12.3-5.8 3.4-14.3 9-19 12.3-4.7 3.4-13 9.7-18.5 14-5.5 4.4-16.5 14.6-24.5 22.6-8 8-18.1 19.1-22.5 24.6-4.4 5.5-12.5 16.7-18 25-5.5 8.2-13.7 22.2-18.2 31-4.4 8.8-10.1 21.2-12.6 27.5-2.5 6.3-6.4 17.6-8.7 25-2.2 7.4-5.4 20-7 28-1.6 8-3.7 20.3-4.6 27.5-1.2 9.1-1.7 20.4-1.7 37.5 0 16.7 0.5 28.6 1.6 37.5 0.9 7.2 2.7 18.6 4.1 25.5 1.4 6.9 4.1 18.1 6.1 25 2 6.9 5.3 17.2 7.4 23 2.1 5.8 6 15.2 8.5 21 2.6 5.8 7.4 15.5 10.7 21.5 3.3 6 10.3 17.3 15.4 25 5.2 7.7 11.9 17.2 15 21 3.1 3.8 9.7 11.5 14.8 17 5.1 5.5 13.9 14.4 19.7 19.9 5.8 5.4 16.3 14.2 23.5 19.6 7.2 5.4 17.7 12.8 23.5 16.5 5.8 3.6 18.6 10.6 28.5 15.5 9.9 4.8 23.8 10.9 31 13.5 7.2 2.6 18.6 6.2 25.5 8.1 6.9 1.9 16.8 4.3 22 5.4 5.2 1.1 15.1 2.7 22 3.5 6.9 0.9 22 1.9 33.5 2.2 12.6 0.3 26 0.1 33.5-0.6 6.9-0.6 17.2-1.8 23-2.7 5.8-0.8 17.3-3.1 25.5-5.1 8.3-2 20.6-5.5 27.5-7.8 6.9-2.3 16.4-5.9 21.3-7.9 4.8-2 14.4-6.5 21.4-10 7.1-3.5 17.8-9.4 23.8-13.1 6-3.7 16.8-11.1 24-16.5 7.2-5.4 18.4-14.7 24.9-20.6 6.6-6 16.5-16.1 22-22.4 5.6-6.3 12.9-15.1 16.2-19.5 3.4-4.4 9.8-13.6 14.3-20.5 4.5-6.9 12.2-20.4 17-30 4.8-9.6 10.9-23.3 13.5-30.5 2.6-7.2 6.3-18.4 8.2-25 1.9-6.6 4.6-17.4 5.9-24 1.3-6.6 3.2-17.6 4.2-24.5 1.3-9.5 1.7-19.1 1.7-40 0-20.6-0.4-30.6-1.7-40-1-6.9-2.9-18.1-4.3-25-1.5-6.9-4.3-18.3-6.4-25.5-2.1-7.2-6.2-19.1-9.1-26.5-2.9-7.4-8.4-19.8-12.4-27.5-3.9-7.7-10-18.6-13.6-24.3-3.5-5.7-10-15.1-14.3-21-4.3-5.9-11.6-15-16.1-20.2-4.6-5.2-13.4-14.5-19.6-20.6-6.3-6-15.9-14.6-21.4-19-5.5-4.3-13.6-10.5-18-13.6-4.4-3.1-13.4-8.8-20-12.8-6.6-3.9-16.7-9.4-22.5-12.2-5.8-2.8-15.5-7-21.5-9.5-6-2.4-17.3-6.4-25-8.8-7.7-2.3-19.4-5.5-26-6.9-6.6-1.4-16.7-3.2-22.5-4-5.8-0.8-16.8-2-24.5-2.6-7.7-0.5-18.3-0.9-23.5-0.9-5.2 0.1-14.7 0.6-21 1z"/><path class="a" d="m1255.5 1088c-4.4 0.5-12.7 1.9-18.5 3-5.8 1.1-13 2.8-16 3.6-3 0.8-10.2 3.2-16 5.3-5.8 2.1-14.5 5.9-19.5 8.4-5 2.5-12.6 6.7-17 9.4-4.4 2.6-12.5 8.2-18 12.3-5.5 4.1-14.3 11.8-19.5 17-5.3 5.2-12.5 13.1-16 17.5-3.5 4.4-9 12-12.3 17-3.3 5-9 15.1-12.6 22.5-3.7 7.4-8.3 18.5-10.3 24.5-2.1 6-4.8 16.2-6.2 22.5-1.4 6.3-2.9 15.9-3.5 21.3-0.6 5.3-1.1 15.4-1.1 22.4 0 7.1 0.5 16.8 1 21.8 0.5 5 1.9 14 3.1 20 1.2 6 4.1 17.1 6.6 24.5 2.5 7.4 7.1 18.9 10.3 25.5 3.2 6.6 8.9 16.7 12.7 22.5 3.8 5.8 10.3 14.5 14.5 19.5 4.1 5 11.7 13 16.9 18 5.2 5 12.8 11.5 16.9 14.6 4.1 3.1 11.2 7.9 15.8 10.8 4.5 2.8 13 7.5 19 10.5 5.9 3 15.4 7 21.2 9 5.8 2.1 13.9 4.6 18 5.6 4.1 1.1 13.3 2.9 20.5 4 9.7 1.5 17.6 2.1 31 2.1 11.4 0 22.1-0.6 29-1.6 6-0.9 15.5-2.7 21-4 5.5-1.3 15-4.1 21-6.3 6-2.1 16.4-6.6 23-10 6.6-3.3 16.5-9.1 22-12.8 5.5-3.6 13.4-9.4 17.5-12.9 4.1-3.5 11.8-10.7 17-16.1 5.3-5.5 12.5-13.7 16-18.4 3.5-4.7 8.7-12.1 11.4-16.5 2.7-4.4 7.5-13.4 10.7-20 3.1-6.6 7.3-16.7 9.3-22.5 1.9-5.8 4.6-15.7 6-22 1.3-6.3 3-16 3.7-21.5 0.8-6.5 1-16.5 0.6-28.5-0.3-10.2-1.3-22.8-2.2-28-0.8-5.2-2.9-14.5-4.5-20.5-1.6-6-4.4-15-6.3-20-1.9-5-5.8-13.7-8.7-19.5-2.9-5.8-7.1-13.4-9.3-17-2.3-3.6-7.5-11-11.6-16.5-4.2-5.5-12.3-14.7-18.1-20.5-5.8-5.9-15-14-20.5-18.1-5.5-4.1-13.8-9.8-18.5-12.6-4.7-2.8-12.2-6.9-16.7-9.2-4.6-2.2-12.9-5.8-18.5-7.9-5.7-2.1-13.9-4.8-18.3-6-4.4-1.2-13.4-3.1-20-4.3-8.3-1.4-17.6-2.2-30-2.4-9.9-0.2-21.6 0-26 0.5z"/></svg>