<svg version="1.2" xmlns="http://www.w3.org/2000/svg" viewBox="0 0 2413 2597" width="2413" height="2597"><style>.a{fill:#82d179}.b{fill:#fff}</style><path class="a" d="m1119.5 407.1c-7.2 0.4-18.6 1.3-25.5 1.9-6.9 0.6-18.8 1.7-26.5 2.6-7.7 0.8-23 2.8-34 4.5-11 1.6-28.1 4.6-38 6.5-9.9 1.9-24.5 5.1-32.5 7-8 1.9-22.8 5.7-33 8.5-10.2 2.8-28.2 8.2-40 12.1-11.8 3.9-28.5 9.6-37 12.8-8.5 3.2-25.2 9.9-37 14.9-11.8 5.1-31.9 14.3-44.5 20.6-12.6 6.2-30.2 15.4-39 20.3-8.8 4.9-23.2 13.3-32 18.7-8.8 5.4-25 15.9-36 23.3-11 7.4-26.1 18-33.5 23.6-7.4 5.5-20 15.3-28 21.7-8 6.5-19.2 15.8-25 20.9-5.8 5.1-18.7 16.9-28.8 26.4-10 9.4-23.5 22.7-30 29.5-6.4 6.9-17.6 19.1-24.7 27.1-7.1 8-18.1 20.9-24.4 28.6-6.3 7.6-17.2 21.5-24.1 30.9-7 9.3-17.8 24.6-24.2 34-6.3 9.3-15.9 24.2-21.3 33-5.4 8.8-13.9 23.2-18.8 32-4.9 8.8-14.5 27.2-21.3 41-6.9 13.7-15.8 32.9-19.9 42.5-4.1 9.6-9.9 24-13 32-3.1 8-8.6 23-12.1 33.5-3.6 10.5-9 27.5-12 38-3 10.5-7 25.1-8.9 32.5-1.9 7.4-4.6 18.9-6 25.5-1.4 6.6-3.7 17.6-5 24.5-1.3 6.9-3.1 16.5-3.9 21.5-0.9 5-2.2 14-3.1 20-0.8 6-2.2 16.8-3.1 24-0.8 7.2-2.1 20.2-2.9 29-0.8 8.8-2 29.5-2.7 46-0.9 23.4-0.9 36.5 0 59.5 0.7 16.2 1.9 37.4 2.7 47 0.9 9.6 2.5 25.2 3.6 34.5 1.1 9.3 3.8 27.3 5.9 40 2.1 12.7 5.4 30.2 7.4 39 1.9 8.8 5.1 22.5 7.1 30.5 2 8 5.8 22.2 8.5 31.5 2.7 9.3 7.4 24.7 10.5 34 3.2 9.3 8.6 24.7 12.2 34 3.5 9.3 9.4 24 13 32.5 3.6 8.5 10.2 23.2 14.5 32.5 4.4 9.3 11.1 23.1 15 30.5 3.9 7.4 11.6 21.4 17.1 31 5.5 9.6 12.9 22.2 16.5 28 3.5 5.8 12.5 19.5 19.9 30.5 7.5 11 19.3 27.7 26.3 37 7.1 9.3 18.2 23.5 24.7 31.4 6.5 8 18.3 21.7 26.2 30.5 7.9 8.9 23.5 25.1 34.5 36.1 11.1 11 27.3 26.4 36.1 34.2 8.8 7.8 21.9 19 29 24.8 7.1 5.9 19.8 15.7 28 22 8.3 6.2 20.4 15 27 19.7 6.6 4.6 18.5 12.6 26.5 17.8 8 5.1 19.7 12.5 26 16.3 6.3 3.8 18.9 11 28 16 9.1 5 26.6 14 39 20.1 12.4 6.1 32.2 15.3 44 20.3 11.8 5 28.9 11.9 38 15.3 9.1 3.4 22.6 8.2 30 10.7 7.4 2.4 23.4 7.3 35.5 10.8 12.1 3.5 27.9 7.8 35 9.5 7.1 1.7 19.3 4.4 27 6.1 7.7 1.6 23 4.5 34 6.4 11 1.9 29 4.6 40 6 11 1.4 28.3 3.2 38.5 4 10.2 0.8 30 1.9 44 2.6 14.6 0.7 34.4 0.9 46.5 0.5 11.5-0.4 28.9-1.1 38.5-1.6 9.6-0.6 22.7-1.5 29-2.1 6.3-0.5 20.5-2.1 31.5-3.5 11-1.4 26.8-3.6 35-5 8.3-1.4 23.8-4.3 34.5-6.5 10.7-2.2 25.8-5.6 33.5-7.5 7.7-2 22.3-6 32.5-8.9 10.2-2.9 23.7-7 30-9 6.3-2.1 21-7.2 32.5-11.5 11.5-4.3 30.5-11.8 42-16.8 11.5-4.9 28.9-12.8 38.5-17.4 9.6-4.6 26-13.1 36.5-18.7 10.5-5.7 24-13.3 30-16.8 6-3.6 18.4-11.3 27.5-17.1 9.1-5.9 21.9-14.4 28.5-19.1 6.6-4.6 17.2-12.2 23.5-16.9 6.3-4.7 16.9-12.8 23.5-18.1 6.6-5.2 16.5-13.3 22-18 5.5-4.7 17.2-15.2 26-23.2 8.8-8.1 24.1-22.9 34-33 9.9-10.1 23.6-24.7 30.5-32.5 6.9-7.7 18-20.7 24.7-29 6.7-8.2 17.4-21.9 23.9-30.4 6.4-8.5 18.2-25.4 26.4-37.5 8.1-12.1 18.8-28.8 23.7-37 5-8.3 12.6-21.3 16.8-29 4.3-7.7 12.4-23.2 18-34.5 5.7-11.3 13.6-28.2 17.8-37.5 4.1-9.3 10.4-24.4 14-33.5 3.6-9.1 9.5-25 13.2-35.5 3.6-10.5 9.5-28.9 13-41 3.5-12.1 7.9-28.3 9.9-36 1.9-7.7 5-21.4 7-30.5 1.9-9.1 4.9-24.4 6.5-34 1.7-9.6 4.2-26.3 5.5-37 1.4-10.7 3.2-26.9 4-36 0.8-9.1 2-27.1 2.7-40 0.7-14.6 0.9-36.2 0.6-57-0.4-18.4-1.1-39.6-1.7-47-0.5-7.4-1.7-20.5-2.5-29-0.9-8.5-2.9-24.7-4.5-36-1.6-11.3-4.1-26.8-5.5-34.5-1.4-7.7-3.7-19.4-5.1-26-1.4-6.6-4.3-19.2-6.5-28-2.1-8.8-5.9-23.2-8.4-32-2.5-8.8-7.3-24.3-10.6-34.5-3.4-10.2-8.7-25.5-11.9-34-3.2-8.5-8.7-22.5-12.3-31-3.6-8.5-9.5-22-13.1-30-3.7-8-11.3-23.5-17-34.5-5.7-11-13.4-25.4-17.1-32-3.8-6.6-10.6-18.3-15.3-26-4.7-7.7-14.4-22.8-21.7-33.5-7.2-10.7-17.1-24.9-22-31.5-4.9-6.6-13.9-18.3-20-26-6.1-7.7-15.8-19.4-21.4-26-5.7-6.6-16.7-19-24.6-27.5-7.8-8.5-21.2-22.3-29.7-30.5-8.4-8.3-21.4-20.4-28.8-27-7.4-6.6-16.4-14.5-20-17.6-3.6-3-13-10.7-21-17.1-8-6.3-20.8-16.1-28.5-21.8-7.7-5.6-21.9-15.5-31.5-21.9-9.6-6.5-26-16.9-36.5-23.3-10.5-6.3-26.2-15.3-35-20.1-8.8-4.7-25.7-13.3-37.5-19.1-11.8-5.7-29.2-13.7-38.5-17.6-9.3-4-22.2-9.3-28.5-11.7-6.3-2.5-19.8-7.4-30-10.9-10.2-3.6-25-8.5-33-10.9-8-2.4-26-7.3-40-10.9-14-3.6-33.4-8.1-43-10.1-9.6-1.9-26.3-4.8-37-6.5-10.7-1.7-24.9-3.7-31.5-4.5-6.6-0.8-19.7-2.1-29-2.9-9.3-0.9-24.8-2-34.2-2.6-9.5-0.5-32.7-0.9-51.5-0.9-18.9 0.1-40.1 0.5-47.3 1z"/><path class="b" d="m646.1 968.5c-1.6 1.1-2.3 2.5-2.3 4.3 0.1 1.5 1.2 3.6 2.4 4.8 1.3 1.2 14.9 10.8 30.3 21.4 15.4 10.6 38.1 26.3 50.5 34.8 12.4 8.6 29.7 20.6 38.5 26.7 8.8 6.2 56 38.9 105 72.7 49 33.8 131.7 91.1 184 127.3 52.2 36.2 97.5 66.9 100.5 68.2 3.4 1.5 8.2 2.7 12.5 3 5.1 0.4 8.7 0.1 13-1.2 3.3-1 7.8-2.9 10-4.3 2.2-1.4 54.2-37.3 115.5-79.7 61.3-42.4 114.4-79.2 118-81.7 3.6-2.4 46.1-31.8 94.5-65.3 48.4-33.4 97.2-67.1 108.3-74.9 11.2-7.8 23.2-16 26.5-18.4 3.4-2.4 14.3-9.9 24.2-16.7 11-7.7 18.3-13.3 18.8-14.7 0.5-1.6 0.2-3-1.1-4.8l-1.9-2.5c-995-0.5-1045-0.4-1047.2 1zm-79.5 40.6l-2.8 2 0.2 635.9c4.2 2.8 74.8 3 605 3 528.7 0 600.8-0.2 602.8-1.5 1.2-0.8 2.8-2.5 3.5-3.7 0.9-1.8 1.2-67.3 1.2-318 0-301.8-0.1-315.8-1.8-317.5-1.1-1.1-3.2-1.8-5.5-1.7-3.2 0-8.7 3.5-38.7 24.4-19.2 13.4-37.7 26.2-41 28.5-3.3 2.3-8.9 6.1-12.5 8.6-3.6 2.5-11 7.6-16.5 11.4-5.5 3.8-23.9 16.5-41 28.4-17 11.8-33.7 23.3-37 25.6-3.3 2.3-8.9 6.2-12.5 8.7-3.6 2.4-11 7.5-16.5 11.3-5.5 3.8-20.1 13.9-32.5 22.5-12.4 8.6-24.7 17.2-27.5 19.1-2.7 2-9.3 6.5-14.5 10.1-5.2 3.6-24.3 16.8-42.5 29.3-18.2 12.6-37.5 26-43 29.8-5.5 3.8-15.9 11-23.2 16-7.3 5.1-15.8 11-19 13.2-3.2 2.2-27.8 19.3-54.8 37.9-26.9 18.7-51.7 35.8-55 38.1-3.3 2.2-9.6 6.6-14 9.6-4.4 3.1-15 10.3-23.5 16.1-8.5 5.8-17.5 11.4-20 12.5-3.3 1.3-7.1 1.8-14 1.8-8.1 0-10.3-0.4-15-2.6-3-1.4-12.2-7.2-20.5-12.9-8.2-5.7-29.4-20.3-47-32.5-17.6-12.2-36.3-25.1-41.5-28.7-5.2-3.5-12.7-8.7-16.5-11.3-3.8-2.7-9.5-6.5-12.5-8.6-3-2.1-9.3-6.5-14-9.8-4.7-3.3-13.7-9.5-20-13.9-6.3-4.3-51.8-35.8-101-69.8-49.2-34.1-94.4-65.4-100.5-69.5-6-4.2-14.2-9.8-18.1-12.5-3.8-2.7-13.2-9.2-20.7-14.4-7.6-5.2-20.6-14.2-29-20-8.3-5.8-19-13.2-23.7-16.5-4.7-3.2-10.5-7.3-13-9-2.5-1.7-23.6-16.4-47-32.6-23.4-16.2-45.6-31.6-49.5-34.2-3.8-2.6-7.9-4.8-9.1-4.7-1.2 0-3.3 0.9-4.8 2.1z"/></svg>