<svg version="1.2" xmlns="http://www.w3.org/2000/svg" viewBox="0 0 2500 1033" width="300" height="124">
	<title>naturesprings-logo</title>
	<style>
		.s0 { fill: #4bf2d6 } 
		.s1 { fill: #27f63e } 
		.s2 { fill: #000000 } 
	</style>
	<path fill-rule="evenodd" class="s0" d="m1264 151.5c6 0.3 13.3 1.4 17 2.5 3.6 1 9.4 3.8 12.9 6.2 3.6 2.4 8.3 6.5 10.4 9.3 2.1 2.7 5.4 8.2 7.3 12 1.9 3.8 4.1 9.9 5 13.5 1.2 4.9 1.5 9.1 1 17-0.3 5.8-0.8 13.5-1.1 17.3-0.3 4-0.9 6.5-1.5 6.2-0.5-0.3-1.7 1.5-2.5 4-0.8 2.5-1.3 4.5-1 4.5 0.3 0-0.4 1.2-1.4 2.7-1.1 1.6-2.4 4-3 5.5-0.6 1.6-0.9 2.8-0.6 2.8 0.3 0 2.4-1.3 4.7-2.9 2.4-1.5 5.8-3.6 7.5-4.5 1.8-0.9 3.1-1.9 2.9-2.4-0.3-0.4 1.9-1.5 4.7-2.4 2.9-0.9 7.4-3.4 10.2-5.4 2.8-2.1 6.1-5.1 7.5-6.8 1.4-1.6 3-3.7 3.7-4.5q1.2-1.6 1.3-0.4c0 0.7-2.6 3.9-5.8 7.1-3.1 3.2-6.8 6.6-8.2 7.5-2.4 1.5-2.2 1.6 6.2 1.6 5.6 0.1 10.2 0.7 12.5 1.7 2.1 0.8 5.3 2.6 7 4 1.8 1.3 3.8 3.4 4.5 4.6 1 2.1 0.8 2-2.8-0.7-2.1-1.6-6.5-3.7-9.7-4.7-3.1-1-7.6-1.8-10-1.8-2.3 0-7.6 0.8-11.7 1.9-4.1 1-9 2.6-10.8 3.5-1.7 0.9-3 2-2.7 2.6 0.3 0.6-1.2 1.8-3.3 2.9-2 1-7.3 5.7-11.7 10.3q-8 8.5-23.6 31.9c-8.6 12.9-17.2 25.9-19.1 28.9-2 3-7.3 11.4-11.7 18.5-4.5 7.1-10.2 17.1-12.6 22-2.4 4.9-6.3 13.7-8.8 19.5-2.5 5.8-5 12.3-5.7 14.5-0.7 2.4-1.4 13.5-1.7 27-0.3 15.4-0.2 22.7 0.5 22 0.6-0.6 2.6-4.9 4.6-9.7 2-4.9 7-15.7 11.2-24.1 4.2-8.3 9.7-18.3 12.3-22.2 2.5-3.8 7.3-9.7 10.6-13 3.3-3.3 8.7-7.9 12-10.2 3.3-2.2 12.2-7.1 19.8-10.9 7.6-3.8 16.8-9.1 20.5-11.9 3.7-2.7 10-8.2 13.9-12.2 4-4 7.3-7.7 7.3-8.3 0-0.6-3.3 1.6-7.3 4.8-3.9 3.2-9.2 7.2-11.7 8.9-2.5 1.7-7 4.3-10 5.8-3 1.5-11.8 5.3-19.5 8.5-7.7 3.1-16.7 7.5-20 9.7-3.3 2.2-8.5 6.7-11.5 9.9-3.6 3.9-7.1 9.2-10.2 15.4-2.5 5.2-5.1 10.6-5.6 12-1 2.5-1.1 2.4-1.1-0.7-0.1-1.8 0.8-7.8 1.9-13.3 1.1-5.5 3-12.8 4.3-16.2 1.2-3.5 4.3-9.9 6.7-14.2 2.5-4.3 7.7-11.3 11.5-15.4 3.8-4.1 10.4-9.8 14.5-12.5 4.1-2.8 10.7-6.5 14.5-8.3 3.8-1.8 11.3-4.6 16.5-6.4 5.2-1.8 13.1-5.1 17.4-7.4 5.1-2.6 9.8-6 13-9.5 2.8-2.9 6-6.7 7-8.5 1-1.7 2.9-6.1 4.2-9.8 1.3-3.8 2.4-8.2 2.4-9.8 0-1.6 0.5-3 1-3 0.5 0 1.5 2.8 2 6.3 0.6 3.4 1.5 10.9 2.1 16.7 0.7 5.8 0.9 16.7 0.6 24.5-0.4 7.7-1.1 16.7-1.7 20-0.6 3.3-2.3 9.8-3.7 14.5-1.4 4.7-4.4 12.1-6.7 16.5-2.3 4.4-5.6 10-7.3 12.5-1.7 2.5-5.9 7.3-9.4 10.7-3.5 3.4-8.2 7.5-10.4 9.1-2.2 1.6-6.9 4.4-10.5 6.3-3.6 2-9.2 4.5-12.5 5.6-3.3 1.2-8.7 2.9-12 3.7-3.3 0.8-11.2 2-17.5 2.7-9.3 0.9-11.9 1.5-13.8 3.3-1.3 1.1-5.2 6.4-8.7 11.6-3.4 5.2-8 12.9-10 17-2.1 4.1-4.9 10.4-6.2 14-1.4 3.6-3.2 9-4 12-0.7 3-2 8.6-2.8 12.5-0.7 3.9-1.6 12.7-1.9 19.8-0.5 10-0.9 12.8-2.1 13.2-0.8 0.3-1.5 0.2-1.6-0.2 0-0.5-0.2-1.5-0.5-2.3-0.2-0.8-2.3-8.5-4.6-17-3.6-13.8-4.1-16.8-4.1-27 0-6.7 0.7-15.5 1.6-21 1-5.2 4.6-21.2 8.1-35.5 3.6-14.3 7.6-31.6 8.9-38.5 1.4-6.9 3-16.3 3.6-21 1-7.3 1.7-9.3 9.1-20h-4.3c-3.7-0.1-4.7-0.6-11.8-8.5l-4.6 2.5c-2.5 1.4-6.4 4.1-8.6 6-2.2 1.9-5.9 6.2-8.3 9.5-2.3 3.3-5.6 9.1-7.2 13-1.6 3.9-3.5 9.7-4.2 13-0.7 3.3-1.3 9.4-1.4 13.5 0 4.1 0.2 10.2 0.6 13.5 0.4 3.3 1.6 9.1 2.7 13 1 3.9 2.9 9.7 4.1 13 1.2 3.3 2.4 7.4 2.6 9 0.3 1.9-1.2-0.3-4.1-6-2.4-4.9-4.5-9.6-4.5-10.2 0-0.7-2.6-3.9-5.8-7-3.1-3.1-7.7-6.6-10.2-7.6-2.5-1.1-6.5-2.5-9-3.2-2.5-0.6-7-1-10-0.8-3 0.1-7.3 1.1-9.5 2.2-2.2 1.1-4.8 3.2-5.9 4.8-1 1.5-2.1 4.2-2.3 5.8-0.3 2.1 0.1 3.6 1.4 4.8 1 1 2.7 1.6 3.8 1.5 1.5-0.3 1.9-1 1.7-2.8-0.2-2 0-2.3 1-1.2 1 0.9 1 1.9 0.3 4-0.7 1.7-1.9 2.8-3.3 3-1.3 0.1-3-0.7-4.2-2-1.1-1.3-2-3.8-2-5.8 0-2.1 0.9-4.9 2.3-7 1.2-1.9 4.3-4.6 6.7-6 3.8-2.1 5.8-2.5 13-2.5 7 0 9.5 0.5 14 2.6 3 1.4 7.6 4.2 15 9.9l-0.5-3.2c-0.3-1.8-1.3-7.8-2.4-13.3-1.1-5.5-2.7-12-3.6-14.5-0.9-2.5-2.9-6.9-4.6-9.7-1.6-2.9-2.6-5.5-2.2-5.8 0.5-0.2 1.7 0.8 2.9 2.3 1.1 1.5 3.1 4.6 4.5 7 1.3 2.3 2.7 4.2 3.1 4.2 0.5 0 1.1-1.9 1.4-4.2 0.4-2.4 1.8-7.7 3.3-11.8 1.4-4.1 4.2-10.2 6.1-13.4 1.9-3.3 6.4-8.9 10-12.5 3.6-3.6 9-8.2 12-10.2 3-2 7.3-4.2 9.5-4.9 2.2-0.7 5.5-0.9 7.3-0.6 1.9 0.4 4.4 2 6.2 4.1 1.7 1.9 3 4.3 3 5.3-0.1 1.5 0.1 1.5 1.6 0.2 0.9-0.8 7.4-9.1 14.5-18.5 8.9-11.9 13.2-18.4 14-21.5 0.7-2.7 0.9-6.1 0.5-8.5-0.6-2.8-2-5.2-4.7-7.7-3-2.9-5-3.9-8.7-4.4-2.6-0.4-6.3-0.4-8.2 0-1.9 0.3-4.4 1.4-5.4 2.4-1 0.9-2.7 3.5-3.7 5.7-1 2.2-1.9 5-1.9 6.3 0 1.2 0.7 3.6 1.5 5.2 0.8 1.6 2.8 3.7 4.5 4.5 1.7 0.8 4.3 1.5 6 1.5 1.7 0 4-0.5 5.2-1 1.3-0.6 2.9-2.5 3.5-4.3 0.7-1.7 1.3-3.9 1.3-4.7 0-0.8-0.7-2.7-1.5-4.2-0.8-1.6-1-2.8-0.5-2.8 0.5 0 1.8 1.2 2.7 2.7 1 1.5 1.8 4.3 1.7 6.3 0 1.9-0.9 5-2 6.8-1 1.9-3.6 4.2-5.7 5.3-2 1-4.6 1.9-5.7 1.9-1.1 0-3.5-0.7-5.3-1.6-1.7-0.9-4.3-2.6-5.5-3.8-1.3-1.1-3-3.3-3.8-4.8-0.8-1.6-1.4-5.2-1.4-8 0-4 0.7-6.6 3-10.5q3-5.2 7.2-7.8c3.3-1.9 5.8-2.5 10.3-2.5 4 0 6.9 0.5 8.5 1.6 1.4 1 4.2 3.3 6.4 5.3 2.1 2 4.9 5.9 6.2 8.6 1.3 2.8 2.4 5.8 2.4 6.8 0 0.9 0.2 1.7 0.5 1.7 0.3 0 1.6-1.2 3-2.7 1.4-1.6 5-6.6 8.2-11.3 3.1-4.7 8.3-13.7 11.5-20 3.2-6.3 7-14.6 8.4-18.5 1.5-3.8 2.4-7.8 2-8.7-0.3-1.1-0.1-1.9 0.6-2.1 1-0.3 1.3-3.5 1.3-11.8 0-11-0.2-11.7-3.6-18.9-2.1-4.4-5.4-9.3-8-11.9-2.4-2.3-7-5.6-10.2-7.2-3.1-1.6-8.9-3.6-12.7-4.4-3.8-0.8-9.3-1.5-12-1.5-2.8 0-7.4 0.9-10.3 2-3.1 1.1-6.9 3.7-9.4 6.2-2.3 2.4-5.2 6.6-6.4 9.3-1.7 3.6-2.3 6.9-2.3 12 0 5.6 0.5 7.9 2.4 11.5 1.4 2.4 4.5 5.8 6.8 7.5 3.9 2.6 5.3 3 12.5 3.3 7.3 0.3 8.6 0.1 11.7-2 1.9-1.3 4.3-3.9 5.2-5.8 1-1.9 2.1-5.1 2.4-7 0.3-1.9 0.1-5.4-0.5-7.7-0.6-2.4-2.3-5.4-3.9-6.9-1.5-1.4-4.5-3-6.7-3.5-3-0.8-5.3-0.7-9 0.3-3.8 1-5.5 2.1-7.2 4.8-1.4 2-2.4 5-2.4 7 0 2 1 5 2.4 7 1.2 1.9 3.4 4.1 4.7 4.8 1.5 0.7 4.2 1.1 6.5 0.8 2.2-0.3 5.2-1.4 6.7-2.6 2.3-1.6 2.8-1.7 2.8-0.5 0 0.8-1.2 2.4-2.8 3.5-1.5 1.2-4.3 2.3-6.2 2.7-1.9 0.3-5.1 0.1-7-0.5-1.9-0.6-5-2.7-6.8-4.6-1.9-2.1-3.5-5.2-3.8-7.3-0.4-2.1-0.4-5.7 0-8 0.4-3.2 1.7-5.5 4.8-8.9 2.6-2.7 5.7-4.9 7.8-5.5 1.9-0.5 6.1-0.9 9.2-0.9 3.2 0 7.3 0.6 9 1.3 1.8 0.8 4.9 2.7 6.8 4.4 1.9 1.7 4.6 5.2 6 7.9 2.1 4.1 2.5 6.3 2.4 13.4 0 7.2-0.4 9.3-2.6 13.5-1.4 2.8-4.2 6.5-6.2 8.3-2 1.7-4.8 3.8-6.4 4.6-1.5 0.7-5.2 1.9-8.2 2.6-3.1 0.7-8.6 1.1-12.5 0.8-4.2-0.3-9-1.4-12-2.7-2.8-1.3-6.6-3.5-8.5-5.1-1.9-1.5-4.8-5.2-6.4-8.1-1.6-3-3.8-8.3-4.8-11.9-1-3.6-1.8-9-1.8-12 0-3 0.7-8 1.6-11 0.9-3 2.5-7.3 3.6-9.5 1.1-2.2 3.7-6 5.7-8.4 2-2.5 5.2-5.5 7.1-6.8 1.9-1.2 6.2-3.4 15.5-7.4l-4.5 0.6c-2.5 0.3-4.3 0.4-4 0.1 0.3-0.3 2.3-1 4.5-1.5 2.2-0.6 8.7-0.8 14.5-0.6zm-802 283.2c1.4 0.3 6 3.7 10.2 7.7 4.2 3.9 22 21.4 71.3 70.6l0.5-78h18v104l-3.2 3.2c-2.9 2.8-3.7 3.1-7.3 2.5-3.7-0.6-7.4-4-43-39.7-21.4-21.4-39.3-39-39.8-39-0.4 0-0.7 17.6-0.7 78l-17.5-0.5v-51.2c0-50.2 0-51.2 2.1-54 1.1-1.5 3.1-3.1 4.5-3.4 1.3-0.4 3.5-0.5 4.9-0.2zm181.5-0.7c0.5 0 2.5 0.5 4.4 1.2 2.5 1 4.4 3 7.6 8.3 2.4 3.9 16.8 27.7 31.9 53 15.2 25.3 27.6 46.3 27.6 46.8 0 0.4-4.8 0.7-21.5 0.8l-16.1-26.6-25.4-0.6c-14-0.3-25.6-0.6-25.8-0.7-0.1-0.1 1.5-3 3.5-6.4 2.1-3.5 4.3-6.9 5-7.5 0.8-0.9 5.6-1.3 16.7-1.3 8.6 0 15.6-0.2 15.6-0.5 0-0.3-5.1-9.1-11.2-19.5-6.2-10.5-11.6-19-12-19-0.5 0-1.8 1.7-2.9 3.8-1.2 2-9.6 16.3-18.7 31.7-9.1 15.4-18.9 32.2-27.2 46.5h-10.5c-9.6 0-10.4-0.2-9.9-1.7 0.3-1 13.6-23.6 29.6-50.3 16.1-26.7 30.2-50.1 31.5-52 1.3-1.9 3.4-4 4.6-4.7 1.2-0.7 2.7-1.3 3.2-1.3zm58.5 2h101v17.5l-4.7 0.8c-2.7 0.4-11.8 0.7-35.8 0.7l-0.7 12.7c-0.5 7.1-0.8 26.9-0.8 75.3h-17v-89h-42zm112 0h19l0.2 35.3c0.3 32.7 0.5 35.5 2.3 39.6 1.1 2.5 3.8 6.1 6.1 8 2.2 2 5.8 4.2 8 4.9 2.1 0.7 8.2 1.7 13.4 2.3 7 0.9 12 0.9 19.2 0 5.4-0.6 11.9-2 14.5-3.1 2.7-1.1 6.2-3.4 8-5.2 1.8-1.8 4-5.3 5-7.8 1.5-4 1.7-8.5 1.9-74h18.4v34.8c0 27.9-0.3 36-1.6 41.2-0.8 3.6-1.8 7-2.2 7.5-0.4 0.5-0.7 1.2-0.7 1.5-0.1 0.3-0.8 1.9-1.7 3.5-0.9 1.7-3.6 4.9-5.9 7.3-2.4 2.4-7.1 5.6-10.4 7.2-3.3 1.6-10 3.6-15 4.5-5 0.8-14.2 1.5-20.5 1.5-6.3 0-15.4-0.7-20.3-1.5-4.8-0.8-11.5-2.8-14.9-4.3-3.5-1.5-8.3-4.8-10.8-7.2-2.5-2.5-5.8-7-7.2-10-1.4-3-3.1-7.9-3.7-10.7-0.7-3.3-1.1-18.4-1.1-40.3zm133 0h42.7c34.6 0 43.9 0.3 48.3 1.5 3 0.8 7.5 2.7 10 4.3 2.5 1.5 6.1 4.9 8 7.4 1.9 2.6 4.3 6.8 5.3 9.5 1 2.6 2.1 8.4 2.4 12.8 0.3 4.5 0.1 10.3-0.6 13.3-0.6 2.8-2.1 7.3-3.3 10-1.2 2.6-4.1 6.5-6.3 8.7-2.3 2.2-5.6 4.7-7.3 5.5-1.8 0.8-3.3 2-3.2 2.5 0 0.5 6.7 7.8 15 16 8.3 8.3 15 15.3 15 15.8 0 0.4-5.7 0.7-25.5 0.6l-27-29.9h-40.5v-17h25c20.4 0 25.7-0.3 28.8-1.6 2-0.8 4.5-2.3 5.6-3.2 1-0.9 2.7-3.4 3.7-5.4 1.4-2.8 1.9-5.9 1.9-11.5 0-6.2-0.5-8.6-2.3-11.7-1.4-2.5-3.8-4.8-6.7-6.3-4.5-2.3-4.8-2.3-70-2.3v89l-18.5-0.5zm137 0h48c47.4 0 48 0 48 2 0 1.1 0.6 2 1.3 2 0.7 0 2.9 1.3 5 3 2 1.6 3.7 3.8 3.8 4.8 0 1.3-1 0.8-4-2-2.3-2.1-4.5-3.6-5.1-3.3-0.5 0.3-1 3-1 6 0 4-0.4 5.6-1.5 6-0.8 0.3-18.1 0.5-75.5 0.5v70l77.5 0.5v18l-96.5 0.5zm33 45l59.5 0.5v15l-59.5 0.5zm98.1 40.5c0.5 0.3 0.8 1.1 0.7 1.8-0.1 0.7 0.3 4.8 1 9.2 0.7 4.4 1.5 8.7 1.6 9.5 0.2 0.9 0.7 2.4 1.1 3.5q0.8 2-0.2 1c-0.6-0.5-1.8-3.4-2.8-6.5-0.9-3-2.1-7.7-2.6-10.5-0.5-2.7-0.6-5.8-0.3-6.7 0.3-1 1-1.6 1.5-1.3z"/>
	<path class="s1" d="m1038.3 95.8c-0.4 1.5-0.7 12.6-0.7 24.7 0 15.5 0.5 25.4 1.7 33.5 1 6.3 2.8 16 4.1 21.5 1.3 5.5 4.1 14.3 6.1 19.5 2 5.2 5.7 13.5 8.3 18.4 2.6 4.8 7.4 12.5 10.8 17 3.4 4.4 9.4 11.2 13.5 14.9 4.1 3.8 9.9 8.5 12.9 10.5 3 2 9.3 5.6 14 8 4.7 2.3 12.8 5.6 18 7.2 5.2 1.6 13.1 3.7 17.5 4.6 6.1 1.4 12.9 1.8 28.6 1.8 16.8 0.1 20.9 0.4 22.4 1.6 0.9 0.8 3.3 4.4 5.3 8 2 3.6 4.6 9.9 5.9 14 1.2 4.1 2.8 11.6 3.5 16.7l1.3 9.1c7-3.7 9.6-4.8 10.3-4.8 0.7 0 1.2-1.4 1.2-3.5 0-1.9-0.4-5.4-0.9-7.7-0.5-2.4-1.5-7-2.1-10.3-0.7-3.3-2.7-10.3-4.5-15.5-1.7-5.2-5.5-14-8.3-19.5-2.9-5.5-7.4-12.9-10.1-16.5-2.7-3.6-7.9-9.4-11.7-12.9-3.8-3.6-9.8-8.4-13.4-10.7-3.6-2.3-9.9-5.9-14-8-4.1-2-14.6-6.1-23.2-9.1-8.7-2.9-20.2-7.5-25.5-10.2-5.4-2.7-13.4-7.5-17.8-10.6-4.4-3.2-10.8-8.3-14.3-11.4-3.5-3.1-6.3-5.9-6.2-6.3 0-0.5 2.6 1.2 5.8 3.6 3.1 2.3 9.3 6.4 13.7 9 4.4 2.5 13.2 6.7 19.5 9.2 6.3 2.6 18.5 6.4 27 8.6 8.5 2.1 18 4.7 21 5.7 3 1 8.7 3.4 12.5 5.3 3.8 2 10.4 6.3 14.5 9.6 4.1 3.3 10 9.2 13 13.1 3 3.8 7.9 11.2 10.7 16.3 2.9 5.1 5.3 8.7 5.3 8.1 0-0.7-0.9-5-2-9.5-1.2-4.6-3.2-11.7-4.7-15.8-1.4-4.1-4.5-11.3-6.8-16-2.4-4.7-6.6-11.8-9.4-15.7-2.8-4-8.3-10.4-12.1-14.3-3.8-3.8-10.3-9.3-14.2-12.1-4-2.8-10.5-6.7-14.3-8.6-3.8-2-11-5-16-6.8-4.9-1.8-16.9-5-26.5-7-9.6-2-20.4-4.8-24-6.1-3.6-1.4-9.4-4.2-13-6.3-3.6-2.1-9-6.3-12-9.3-3-3-7.1-7.9-9.1-10.9-1.9-3-4.5-7.9-5.7-10.9-1.2-3-2.6-7.9-3.2-10.7-0.5-2.9-1.2-5.3-1.5-5.3-0.2 0-0.8 1.2-1.2 2.8zm175.7 235.7c-2.5 1.3-2.6 1.7-3.8 18.2-0.8 10.4-2.7 25.2-5.2 38.8-2.2 12.1-4.7 25.4-5.6 29.5-0.8 4.1-2.8 15.1-4.5 24.5-2.4 13.9-2.9 19.8-2.9 32.8q0 15.7 1.6 23.5c0.9 4.2 2.7 11.3 4.1 15.7 1.4 4.4 4 10.9 5.9 14.5 1.8 3.6 3.9 7.3 4.6 8.2 0.7 1 1.6 1.7 2.1 1.8 0.4 0-0.8-3.7-2.6-8.2-1.9-4.6-4.4-12.6-5.7-17.8-1.9-7.7-2.4-13-2.8-28.5-0.3-16.1-0.1-20.7 1.7-30.5 1.1-6.3 4.4-20.5 7.2-31.5 2.7-11 6.5-26.7 8.4-35 1.8-8.2 3.8-18.1 4.4-22 0.5-3.8 1.5-11.8 2.1-17.7l1-10.8c-4.3-5.5-5.9-7.1-6.5-7-0.5 0-2.1 0.7-3.5 1.5zm468 103.6c-1.4 0.5-3.3 2.2-4.2 3.9-1.7 2.7-1.8 7.2-1.8 54v51h18c0-60.4 0.3-78 0.8-78 0.4 0 17.6 17.2 38.2 38.1 20.6 21 38.7 38.7 40.3 39.5 1.5 0.8 4 1.4 5.7 1.4 1.7 0 4.2-1 5.8-2.4l2.7-2.4 0.5-105.2h-18l-0.5 78.1c-60.4-59.5-79-77.3-80.2-77.9-1.3-0.7-2.9-1.2-3.5-1.1-0.7 0-2.4 0.5-3.8 1zm-423.6 2.7c-2.8 0.9-6.8 3.1-8.9 4.7-2.1 1.7-5.1 5.5-6.8 8.5-2.7 4.7-3.2 6.8-3.5 14-0.3 7.8-0.1 9 2.6 14.5 1.7 3.3 4.6 7.5 6.6 9.3 2 1.7 4.3 3 5.1 2.7 0.8-0.3 1.3 0 1 0.5-0.3 0.6 1.4 1.8 3.8 2.7 3.6 1.5 9.1 1.8 37.2 2.3 29.3 0.4 33.4 0.7 35.8 2.3 1.5 0.9 3.4 3.2 4.3 5 1.1 2 1.5 4.9 1.3 7.9-0.3 3.2-1.2 5.4-2.9 7.3-1.4 1.5-3.4 3.2-4.5 3.8-1.4 0.8-15.1 1.4-45 1.7l-43 0.5-0.5 18.5c80.9-0.5 91.2-0.9 94-1.9 1.9-0.8 5.2-2.5 7.3-3.8 2.4-1.5 3.4-2.7 3-3.5-0.5-0.8-0.4-1 0.2-0.6 0.6 0.4 1.7 0 2.6-1 0.9-0.9 2.4-3.3 3.4-5.2 0.9-1.9 1.4-4.1 1.1-4.7-0.3-0.7-0.1-1.1 0.4-0.8 0.6 0.3 1.2-1 1.5-2.7 0.3-1.8 0.5-5.4 0.5-8 0-2.7-0.4-6.9-1-9.5-0.5-2.7-2-6.4-3.3-8.3-1.3-1.9-2.9-3.4-3.5-3.2-0.7 0.1-1-0.1-0.7-0.5 0.2-0.5-0.3-1.5-1.3-2.4-0.9-0.9-3.2-2.4-4.9-3.3-1.8-0.9-3.9-1.3-4.5-0.9-0.8 0.5-1 0.4-0.6-0.2 0.4-0.6-0.9-1.3-3-1.7-2-0.4-17.8-0.7-34.9-0.8-31.1 0-31.3 0-33.6-2.2-1.3-1.3-2.9-3.3-3.5-4.5-0.7-1.3-1.2-4.5-1.2-7.3 0-3.9 0.6-5.7 2.5-8 1.5-1.8 3.8-3.2 5.8-3.5 1.7-0.3 21-0.7 42.7-0.8l39.5-0.2 0.5-18.5c-81.4 0.1-87.1 0.3-91.6 1.8zm112.6 52.2v54h19v-89c60.1 0 63.9 0.2 67.5 1.8 2.2 1 5 3.2 6.3 4.8 1.2 1.6 2.8 4.5 3.4 6.4 0.6 2 0.8 6.1 0.5 9.5q-0.6 6-3.2 9.8c-1.4 2.1-4.3 4.5-6.7 5.7-3.9 1.8-6.5 2-29 2h-24.8v19c36 0 49-0.4 52-1 3-0.6 7.8-2.1 10.5-3.4 2.8-1.3 7-4.3 9.5-6.7 2.4-2.4 5.4-6.6 6.7-9.4 1.3-2.7 2.8-8.1 3.4-12 0.8-5.1 0.8-9 0-14.2-0.6-4-2.1-9.2-3.3-11.5-1.1-2.4-3-5.6-4.2-7.1-1.2-1.6-4.3-4.3-7.1-6.2-2.7-1.8-7.5-4.1-10.5-4.9-4.6-1.4-12.2-1.6-47.7-1.6h-42.3zm129 0v54h19v-89c57.9 0 65.7 0.3 68.3 1.4 1.7 0.7 4.4 2.6 5.8 4.2 1.5 1.6 3.1 4.5 3.8 6.4 0.6 1.9 1.1 5.8 1.1 8.5 0 2.8-0.5 6.8-1.1 9-0.7 2.2-2.6 5.4-4.3 7.1-1.7 1.7-4.9 3.6-7.1 4.3-2.5 0.7-13.4 1.1-28.2 1.1h-24.3v17c36.8 0 41.2 0.3 41.8 1.4 0.4 0.7 6.3 7.5 13.2 15l12.5 13.6c19.8 0 25.5-0.3 25.5-0.7 0-0.5-7-7.8-15.6-16.3l-15.6-15.5c6.8-4.1 10.4-7.1 12.4-9.2 2-2.1 4.6-5.8 5.7-8.3 1.1-2.5 2.6-7.6 3.3-11.5 1-5.6 1-8.5 0-14.5-0.7-4.1-2.2-9.5-3.3-12-1.1-2.5-3.2-5.8-4.6-7.5-1.4-1.6-4.2-4.2-6.2-5.7-2-1.6-6.5-3.7-10.1-4.8-6.1-1.9-9.1-2-49.2-2h-42.8zm138 0v54h19v-108h-19zm201.5-52.1c-3.3 1-8 2.8-10.5 4.1-2.5 1.3-6.7 4.4-9.4 6.9-2.7 2.5-6.1 6.4-7.6 8.6-1.6 2.2-4 7.2-5.5 11-1.8 4.7-2.9 9.8-3.2 15.5-0.3 4.8-0.1 11.5 0.6 15.5 0.7 3.9 2.9 10.5 5 15 2.7 5.5 5.7 9.9 9.8 14 3.9 4 8.4 7.2 13.4 9.7 4 2 10.1 4.1 13.4 4.7 3.5 0.7 20.3 1.1 40.8 1.1h34.7v-63h-68v16h49l-0.5 27.5h-54c-11.2-5.4-14.7-8-16.9-10.7-1.9-2.4-4.5-6.5-5.8-9.3-1.9-4.1-2.3-6.7-2.3-15 0-8.7 0.3-10.7 2.6-15.5 1.5-3 4.4-7.2 6.5-9.3 2.2-2.2 6.2-5.1 8.9-6.5l5-2.7 68-1 0.5-18.5c-63.8 0.1-69.3 0.4-74.5 1.9zm116.5-0.1c-3.3 1.1-7.1 3.3-10 5.8-2.6 2.4-5.5 6.3-6.9 9.5-1.8 4-2.4 7.3-2.5 12.9-0.1 6.5 0.3 8.4 3.1 14 1.9 4.1 4.5 7.6 7 9.4 2.1 1.7 5.8 3.9 8.3 5 4.2 1.9 7 2.1 37.5 2.6 30.9 0.5 33.2 0.6 36.5 2.5 2.6 1.6 3.9 3.2 4.9 6.5 0.7 2.5 1.1 6 0.7 7.8-0.3 1.7-1.7 4.6-3.1 6.2-1.4 1.7-4.2 3.4-6.2 4-2.2 0.6-21.1 1-45.5 1h-41.8l0.5 18.5c68.1 0.5 84.2 0.2 88.5-0.6 3.6-0.6 8.1-1.9 10-2.9 1.9-1 5-3.3 6.9-5.2 1.9-1.8 4.5-5.8 5.9-8.8 2-4.4 2.5-7.1 2.5-13.5 0-4.4-0.5-9.8-1.1-12-0.6-2.2-2.2-5.6-3.4-7.5-1.3-1.9-4.4-4.9-6.8-6.6-2.5-1.7-6.9-3.6-9.7-4.2-3.4-0.8-15.8-1.2-34.8-1.2-24 0-30.2-0.3-33-1.5-1.9-0.8-4.2-2.5-5-3.7-0.8-1.3-1.8-4.1-2.1-6.3-0.5-2.9-0.1-5.1 1.2-7.9 1.1-2.1 3.1-4.5 4.7-5.2 2.1-1.1 11.1-1.4 43.7-1.4h41v-19c-79.7 0.2-86.2 0.4-91 1.8z"/>
	<path fill-rule="evenodd" class="s2" d="m1830.5 600c1.3 0 10.8 8.8 50.5 48.5v-47.5h11v31.5c0 28.6-0.2 31.7-1.8 33.5-0.9 1.1-2.6 2-3.7 2-1.3 0-10.9-8.9-26-24-13.2-13.2-24.3-24-24.8-24-0.4 0-0.7 10.6-0.7 47h-11v-30.5c0-21 0.4-31.2 1.1-32.8 0.7-1.2 1.7-2.5 2.3-2.9 0.6-0.4 2-0.8 3.1-0.8zm-1383.4 0.9l11.4 0.6 0.5 53.5 43.5 0.5 0.5 11.5-55.5-0.5zm182.8 0.1c1.4 0 3.4 0.7 4.2 1.7 0.9 1 3.4 4.8 5.5 8.6 2.2 3.7 4.3 6.7 4.7 6.7 0.4 0 0.7 0.6 0.7 1.3 0 0.6 6 11.1 13.3 23.2 7.3 12 13.3 22.3 13.5 22.7 0.1 0.4-2.6 0.8-12.3 0.8l-9.1-15.5-15.2-0.2c-11.4-0.2-15.2-0.6-15.1-1.5 0-0.7 0.9-2.8 3.9-7.8l9.4 0.1c5.2 0 9.7-0.1 10-0.3 0.3-0.2-2.5-5.4-6.2-11.7-3.7-6.2-7.1-11.2-7.7-11.1-0.5 0.1-4.7 6.4-9.2 13.9-4.5 7.5-10.9 18.2-20.3 34.1h-6c-5.9 0-6 0-4.8-2.2 0.6-1.3 9-15.3 18.6-31.3 9.6-15.9 17.9-29.6 18.4-30.2 0.6-0.7 2.2-1.3 3.7-1.3zm136.1 0c2 0 7.8 5.3 26 23.5 12.9 12.9 24.1 23.4 24.8 23.5 0.9 0 1.2-5.3 1.2-47h10v30.8c0 25.7-0.2 31.1-1.5 33-0.9 1.3-2.5 2.2-4 2.2-1.9 0-7.9-5.4-26-23.2-13-12.8-23.9-23.4-24.3-23.6-0.4-0.1-1 2.1-1.4 5-0.4 2.9-0.8 13.3-0.8 40.8h-9l-0.2-31.3c-0.1-25.8 0.1-31.5 1.2-32.5 0.8-0.7 2.6-1.2 4-1.2zm177.4 0.2c22.7 0.3 23.2 0.4 28.6 3 3 1.4 7 4.2 8.8 6.2 1.8 2 4.2 5.5 5.4 7.9 1.6 3.1 2.3 6.5 2.6 13.2 0.3 7.3 0 10-1.6 14.5-1.2 3-4 7.7-6.4 10.3-2.5 2.8-6.6 6-9.8 7.5-5.4 2.6-6 2.7-51.5 3.4l0.2-32.9c0.1-18 0.3-32.9 0.3-33.1 0.1-0.2 10.6-0.2 23.4 0zm-12.4 53.8c33.3-0.5 33.8-0.6 37.9-3.2 2.3-1.6 5-4.5 6.1-6.8 1.1-2.2 2.3-5.9 2.6-8.2 0.4-2.4 0.1-6.3-0.6-8.8-0.6-2.5-2.2-6-3.6-7.7-1.3-1.8-4.2-4.2-6.4-5.3-3.5-1.7-6-2-20-2h-16zm214-54v10.5l-17.2 0.7c-9.5 0.5-21.1 0.8-25.8 0.8-6.8-0.1-8.8 0.3-10.3 1.7-1.1 1.1-1.8 3.3-1.8 5.8 0 2.8 0.7 4.6 2.1 6 1.9 1.8 3.8 2 24 2.5 20.2 0.5 22.1 0.7 24.7 2.6 1.6 1.1 3.8 3.6 5.1 5.5 1.8 2.6 2.3 4.8 2.3 9.7-0.1 3.4-0.7 7.7-1.4 9.5-0.7 1.7-2.8 4.4-4.5 6-1.8 1.5-4.9 3.1-6.9 3.7-2.1 0.5-15.4 0.9-56.8 0.5v-11l27.2-0.5c25.3-0.5 27.3-0.6 29.3-2.5 1.7-1.6 2.1-2.9 1.8-6.5-0.2-4-0.7-4.7-3.8-6.2-2.9-1.5-6.4-1.8-22.2-1.8-10.9 0-19.9-0.4-21.5-1.1-1.5-0.5-4.1-2.2-5.6-3.7-1.6-1.5-3.5-3.9-4.3-5.4-0.7-1.6-1.4-5.3-1.4-8.3 0-3 0.7-6.7 1.4-8.2 0.8-1.6 2.5-3.8 3.8-5 1.3-1.3 4.1-3 6.3-3.8 3.1-1.1 9.8-1.4 55.5-1.5zm157.5 0v10.8l-19.5 0.4c-14.9 0.3-20.3 0.8-23 2-1.9 0.9-4.9 3.1-6.7 4.9-2 2.1-3.7 5.5-4.6 8.9-1.1 4-1.3 6.7-0.6 9.8 0.5 2.3 1.5 5.4 2.3 7 0.7 1.5 3.1 4.2 5.2 6 2.2 1.8 5.3 3.4 6.9 3.7 1.7 0.3 11.3 0.6 40 1l-0.2 3.8c-0.2 2 0.2 3.9 0.7 4.2 0.6 0.3 1 1.2 1 2 0 1.3-2.8 1.5-19.7 1.5-15.4 0-21-0.3-25.3-1.6-3-0.9-7.4-3-9.7-4.7-2.3-1.8-5.7-5.7-7.7-8.7-2.6-3.9-3.9-7.5-4.8-12.5-0.9-5.5-0.9-8.3 0.1-13 0.7-3.3 2-7.3 2.9-9 0.9-1.6 3.3-4.7 5.2-6.8 1.9-2.1 4.9-4.6 6.5-5.4 1.7-0.9 4.8-2.2 7-2.9 2.7-0.8 10.9-1.3 44-1.4zm129.9 0.2c2.8 0.3 4.2 2.3 20.9 29.8 9.8 16.2 18.5 30.7 20.7 35h-12.5l-9.1-15.5-31.3-1 4.5-8 20.2-1-6.6-11.2c-3.7-6.1-6.9-11.4-7.2-11.8-0.3-0.3-6 8.8-12.9 20.2-6.8 11.5-13.5 22.7-15 25-2.5 4.2-2.7 4.3-7.8 4.3-2.9 0-5.5-0.3-5.8-0.7-0.2-0.5 7.9-14.7 18.1-31.8 10.2-17 19.1-31.6 19.7-32.3 0.6-0.7 2.4-1.2 4.1-1zm616.6-0.2v5.5c0 5-0.2 5.5-2.2 5.6-1.3 0.1-11.1 0.4-41.6 1.4l-3.8 3.1c-2.1 1.6-4.9 5-6.1 7.5-1.4 2.6-2.3 6.2-2.3 8.9 0 2.5 0.5 6.1 1.1 8 0.7 1.9 2.3 5 3.6 6.8 1.3 1.7 4.1 4.1 6.3 5.2 3.5 1.8 6 2 20.5 2 16.3 0 16.5 0 17.1-2.2 0.3-1.3 0.4-5-0.1-14.3l-29.5-0.5v-9h41v37.5h-23.7c-21.8 0-24.2-0.2-28.3-2.1-2.5-1.1-6.4-3.8-8.8-6-2.5-2.1-5.4-5.9-6.7-8.4-1.3-2.5-2.8-7.2-3.4-10.5-0.7-4.1-0.8-7.9-0.1-12 0.6-3.3 2-7.8 3.1-10 1.2-2.2 3.3-5.3 4.8-6.8 1.4-1.6 4.2-3.8 6.1-5 1.9-1.1 5.3-2.7 7.5-3.3 2.6-0.8 11.4-1.3 45.5-1.4zm-485.9 0.9l27.2 0.3c26.9 0.3 27.3 0.3 31.6 2.8 2.7 1.5 5.4 4.2 7 7 2.2 3.9 2.6 5.7 2.6 12.5 0 6.7-0.4 8.7-2.5 12.5-1.4 2.4-4.1 5.5-6 6.8-1.9 1.2-5.1 2.7-7 3.2-1.9 0.6-10.3 1-34 1l0.5-10.5 17.5-0.6c9.6-0.3 17.6-0.6 17.8-0.7 0.1-0.1 1.1-1.7 2.2-3.4q2-3.3 2-8.5c0-4.4-0.4-5.8-2.7-8.2-1.5-1.6-4.1-3.2-5.8-3.6-1.6-0.4-11.2-0.5-39.5 0.5l-0.1 7.8c-0.1 4.2-0.4 16-1.4 44.7l-9.5 0.5zm158.9 0.1h10l0.6 31.3c0.4 17.2 0.4 31.8 0 32.5-0.3 0.7-2.5 1.2-5.1 1.2-3.1 0-4.6-0.4-5-1.5-0.3-0.8-0.5-15.4-0.5-32.5z"/>
</svg>