<svg version="1.2" xmlns="http://www.w3.org/2000/svg" viewBox="0 0 20 20" width="64" height="64">
	<path fill="currentColor" d="m10 2c-0.7 0-1.3 0.3-1.8 0.7-0.4 0.5-0.7 1.1-0.7 1.8 0 0.7 0.3 1.3 0.7 1.8 0.5 0.4 1.1 0.7 1.8 0.7 0.7 0 1.3-0.3 1.8-0.7 0.4-0.5 0.7-1.1 0.7-1.8 0-0.7-0.3-1.3-0.7-1.8-0.5-0.4-1.1-0.7-1.8-0.7zm-1.5 2.5c0-0.4 0.2-0.8 0.4-1.1 0.3-0.2 0.7-0.4 1.1-0.4 0.4 0 0.8 0.2 1.1 0.4 0.2 0.3 0.4 0.7 0.4 1.1 0 0.4-0.2 0.8-0.4 1.1-0.3 0.2-0.7 0.4-1.1 0.4-0.4 0-0.8-0.2-1.1-0.4-0.2-0.3-0.4-0.7-0.4-1.1zm7-1.5c-0.5 0-1 0.2-1.4 0.6-0.4 0.4-0.6 0.9-0.6 1.4 0 0.5 0.2 1 0.6 1.4 0.4 0.4 0.9 0.6 1.4 0.6 0.5 0 1-0.2 1.4-0.6 0.4-0.4 0.6-0.9 0.6-1.4 0-0.5-0.2-1-0.6-1.4-0.4-0.4-0.9-0.6-1.4-0.6zm-1 2q0-0.4 0.3-0.7 0.3-0.3 0.7-0.3 0.4 0 0.7 0.3 0.3 0.3 0.3 0.7 0 0.4-0.3 0.7-0.3 0.3-0.7 0.3-0.4 0-0.7-0.3-0.3-0.3-0.3-0.7zm-12 0c0-0.5 0.2-1 0.6-1.4 0.4-0.4 0.9-0.6 1.4-0.6 0.5 0 1 0.2 1.4 0.6 0.4 0.4 0.6 0.9 0.6 1.4 0 0.5-0.2 1-0.6 1.4-0.4 0.4-0.9 0.6-1.4 0.6-0.5 0-1-0.2-1.4-0.6-0.4-0.4-0.6-0.9-0.6-1.4zm2-1q-0.4 0-0.7 0.3-0.3 0.3-0.3 0.7 0 0.4 0.3 0.7 0.3 0.3 0.7 0.3 0.4 0 0.7-0.3 0.3-0.3 0.3-0.7 0-0.4-0.3-0.7-0.3-0.3-0.7-0.3zm0.5 11q0.1 0 0.1 0 0.1 0.5 0.3 1-0.6 0.1-1.3-0.1-0.6-0.2-1.1-0.6-0.5-0.5-0.7-1.1-0.3-0.6-0.3-1.2v-3.8c0-0.6 0.6-1.2 1.3-1.2h2.1q-0.1 0.1-0.2 0.2 0 0.2-0.1 0.3 0 0.1 0 0.2-0.1 0.2-0.1 0.3h-1.8q0 0 0 0-0.1 0-0.1 0.1-0.1 0-0.1 0.1 0 0 0 0v3.8q0 0.4 0.2 0.8 0.1 0.3 0.4 0.6 0.3 0.3 0.6 0.4 0.4 0.2 0.8 0.2zm12-5.5q0.2 0.1 0.3 0.3 0.2 0.2 0.3 0.4 0.1 0.2 0.2 0.4 0.1 0.2 0.2 0.4v-1.8c0-0.6-0.6-1.2-1.3-1.2h-2.1q0.3 0.4 0.4 1h1.8q0 0 0 0 0.1 0 0.1 0.1 0.1 0 0.1 0.1 0 0 0 0zm-1.5 0.5h-2q-0.3 0.1-0.6 0.2-0.2 0.1-0.5 0.3-0.2 0.2-0.3 0.5-0.1 0.3-0.1 0.5v0.5h-0.5q-0.3 0.1-0.6 0.2-0.2 0.1-0.5 0.3-0.2 0.2-0.3 0.5-0.1 0.3-0.1 0.5v1.5h2v-0.5q0-0.2 0.1-0.3 0.2-0.1 0.4-0.2 0.2 0.1 0.4 0.2 0.1 0.1 0.1 0.3v0.5h3v-0.5q0-0.2 0.1-0.3 0.2-0.1 0.4-0.2 0.2 0.1 0.4 0.2 0.1 0.1 0.1 0.3v0.5h2v-1.5q0-0.2-0.1-0.5-0.1-0.3-0.3-0.5-0.3-0.2-0.5-0.3-0.3-0.1-0.6-0.2h-0.5v-0.5q0-0.2-0.1-0.5-0.1-0.3-0.3-0.5-0.3-0.2-0.5-0.3-0.3-0.1-0.6-0.2zm-8.3-1q0 0.1 0 0.1-0.1 0-0.1 0-0.1 0.1-0.1 0.1 0 0.1 0 0.1v4.8c0 1.3 0.8 2.4 2 2.8v0.7q0 0.1 0 0.3-0.6-0.1-1.2-0.5-0.5-0.4-1-0.9-0.4-0.5-0.6-1.1-0.2-0.7-0.2-1.3v-4.8c0-0.7 0.6-1.2 1.3-1.2h5.5c0.6 0 1.1 0.4 1.2 1zm5.7 3v-0.5q0-0.1 0.1-0.2 0-0.1 0.1-0.2 0-0.1 0.1-0.1 0.1 0 0.2 0h2q0.1 0 0.2 0 0.1 0 0.2 0.1 0 0.1 0.1 0.2 0 0.1 0 0.2v0.5zm4 4v0.5q0 0.2-0.1 0.3-0.2 0.1-0.4 0.2-0.2-0.1-0.3-0.2-0.2-0.1-0.2-0.3v-0.5h-3v0.5q0 0.2-0.1 0.3-0.2 0.1-0.4 0.2-0.2-0.1-0.3-0.2-0.2-0.1-0.2-0.3v-0.5h-2v1.5q0 0.2 0.1 0.5 0.2 0.3 0.4 0.5 0.2 0.2 0.5 0.3 0.2 0.1 0.5 0.2h6q0.3-0.1 0.6-0.2 0.3-0.1 0.5-0.3 0.2-0.2 0.3-0.5 0.1-0.3 0.1-0.5v-1.5z"/>
</svg>