<svg version="1.2" xmlns="http://www.w3.org/2000/svg" viewBox="0 0 408 320" width="82" height="64"><style>.a{opacity:1;fill:#8fb276}</style><path class="a" d="m43 20.9c-1.4 0.4-4.3 1.7-6.5 2.8-2.2 1.2-5.9 4.1-8.3 6.4-2.3 2.4-5.3 6.4-6.5 8.9l-2.2 4.5v120c4.1 7.8 7 11.7 9.2 13.9 2.1 2.1 6.3 5.1 9.3 6.5l5.5 2.6 77.5 0.5c-0.8 11.6-1.5 17-2 19.5-0.5 2.5-2 6.4-3.2 8.8-1.1 2.3-4.2 6.4-6.8 9.2-2.6 2.8-7.6 6.5-11.1 8.3-4.8 2.5-8.3 3.5-14.4 4.1-4.4 0.5-9.8 1.7-11.9 2.7-2.2 1.1-5.1 3.6-6.5 5.8-2.6 3.9-2.6 4.1-2.6 25.1v21.2c4 5.3 6.9 7.6 9.1 8.7 3.2 1.5 6.2 1.8 15.9 1.8 7.1-0.1 14.9-0.8 19-1.7 3.8-0.9 9.7-2.5 13-3.7 3.3-1.1 8.7-3.4 12-5.1 3.3-1.6 8.7-4.8 12-7 3.3-2.2 9.6-7.7 14-12.1 4.6-4.6 10.3-11.8 13.3-16.6 2.9-4.7 6.6-12.1 8.3-16.5 1.8-4.4 4-12.9 5-19 1.7-10.1 1.9-17.5 1.9-91.3 0-80 0-80.2-2.2-87-1.8-5.4-3.3-7.8-7.8-12.2-3.8-3.8-7.3-6.3-11.3-7.8-5.7-2.2-6.2-2.2-62.5-2.1-31.2 0-57.8 0.4-59.2 0.8zm200.4 1c-2.3 0.9-5.9 2.8-8 4.3-2.1 1.5-5.3 4.6-7 7-1.8 2.4-3.9 6.5-4.8 9.3-1.5 4.5-1.6 11.4-1.4 63.5 0.3 55.5 0.4 58.7 2.2 62 1.1 1.9 3.6 5.5 5.5 7.8 2.3 2.8 5.9 5.5 10.1 7.5l6.5 3.2 76.5 0.5c-0.5 18.2-1 20.4-3.6 26-1.7 3.6-5.1 8.7-7.6 11.5-2.9 3.2-7 6.2-11.4 8.4-5 2.4-9 3.6-14.4 4.1-4.1 0.4-8.4 1.1-9.5 1.5-1.1 0.5-3.5 1.9-5.3 3.1-1.7 1.3-3.9 4.1-4.7 6.1-1.2 3-1.5 8.1-1.6 23.3 0 18.6 0.1 19.7 2.3 23 1.3 1.9 3.9 4.5 5.8 5.7 2.8 1.9 4.9 2.4 11 2.5 4.1 0 10 0 13-0.2 3-0.1 9.3-1 14-2 4.7-1.1 10.3-2.6 12.5-3.5 2.2-0.9 6.4-2.7 9.2-4.1 2.9-1.3 8.2-4.3 11.7-6.7 3.5-2.3 8.9-6.5 12.1-9.2 3.2-2.8 8.5-8.6 11.8-13 3.3-4.4 8.1-12.5 10.7-18 2.6-5.5 5.2-12 5.8-14.5 0.6-2.5 1.6-7.2 2.3-10.5 0.8-4.2 1.1-31.6 1.1-90.5v-84.5c-4-8.9-7.4-13.6-10-16.3-3.2-3.1-6.8-5.5-10.7-6.9-6-2.3-6.4-2.3-63-2.2-50.5 0.1-57.5 0.3-61.1 1.8z"/></svg>