<svg version="1.2" xmlns="http://www.w3.org/2000/svg" viewBox="0 0 544 552" width="544" height="552">
	<title>AdobeStock_344600889_Editorial_Use_Only-ai</title>
	<style>
		.s0 { fill: #88ac75 } 
		.s1 { fill: #ffffff } 
	</style>
	<g id="321353356351 1">
		<g id="&lt;Group&gt;">
			<g id="&lt;Group&gt;">
				<path id="&lt;Path&gt;" class="s0" d="m534.8 272c0 145-117.6 262.5-262.5 262.5-145 0-262.5-117.5-262.5-262.5 0-145 117.5-262.5 262.5-262.5 144.9 0 262.5 117.5 262.5 262.5z"/>
			</g>
			<g id="&lt;Group&gt;">
				<g id="&lt;Group&gt;">
				</g>
				<path id="&lt;Path&gt;" class="s1" d="m216.6 214.5c14.9 0 15.4 0.8 18.2 1.5v64.4c-5-1.5-10.2-2.3-15.7-2.3-29.7 0-53.8 24-53.8 53.7 0 29.6 24.1 53.6 53.8 53.6q1 0 2 0c28.6-1 51-25.2 51-53.8v-9.5-243.5h64c0 4.9-0.9 77.4 89 89.5 0 20.7 0 62.9 0 62.9 0 0-45.1 3.2-89-28.3v124.9c0 94.5-77.9 121.7-120.3 121.7-44.4 0-111.4-28.9-115.4-121.1-2.3-50.7 44.9-111.8 116.2-113.7z"/>
			</g>
		</g>
	</g>
</svg>